<svg xmlns="http://www.w3.org/2000/svg" viewBox="0 0 520 300" role="img" aria-label="EU27 detailed outline">
  <defs>
    <linearGradient id="landWash" x1="0" y1="0" x2="1" y2="1">
      <stop offset="0" stop-color="#f0ede4"/>
      <stop offset="1" stop-color="#dbd7ca"/>
    </linearGradient>
    <filter id="softShadow" x="-10%" y="-10%" width="120%" height="120%">
      <feDropShadow dx="0" dy="8" stdDeviation="9" flood-color="#2c281f" flood-opacity="0.10"/>
    </filter>
  </defs>
  <rect width="520" height="300" rx="22" fill="rgba(255,253,248,0)"/>
  <g class="grid" opacity="0.45">
    <path class="grid-line" d="M121.9 272L121.9 28"/>
    <path class="grid-line" d="M186.2 272L186.2 28"/>
    <path class="grid-line" d="M250.4 272L250.4 28"/>
    <path class="grid-line" d="M314.6 272L314.6 28"/>
    <path class="grid-line" d="M378.8 272L378.8 28"/>
    <path class="grid-line" d="M109.1 233.5L410.9 233.5"/>
    <path class="grid-line" d="M109.1 169.3L410.9 169.3"/>
    <path class="grid-line" d="M109.1 105.1L410.9 105.1"/>
    <path class="grid-line" d="M109.1 40.8L410.9 40.8"/>
  </g>
  <g filter="url(#softShadow)">
    <path class="land" d="M402.6 265.7L401.9 266.7L400.4 267.3L395.9 267.8L394.3 267.2L393.5 265L394.3 265.3L395.9 264.4L396.9 265.2L400.7 264.5L401 265.7L402.6 265.7Z"/>
    <path class="land" d="M202.4 162.3L202.8 163.8L204.1 164.6L206.3 164.3L207.2 165.9L209.3 166.2L209.9 167.3L211.9 167.1L213.1 167.6L212.7 169.4L216 169.4L217.1 168.2L217.3 170.6L219.9 171.2L221.2 172.5L227.3 172.7L229.3 174.7L233.7 174.6L235.2 175.4L238.8 176L236.3 178.2L234.9 181.3L234.4 184L234.9 184.8L233.5 185.8L230.9 185.4L230.2 186.3L231.3 186.4L227.5 188.9L227.4 190.1L225.4 191.2L225.3 193.3L224.4 193.7L224.4 194.1L225.6 194L226.5 193.4L226.4 192.5L227.8 192.1L229.7 192.3L229.6 194L231.2 195.4L229.8 196.1L229.8 196.8L232.1 198.7L231.5 200L228.6 200.7L229.5 202L231.2 202.5L231.5 203.4L230.1 204.4L230.2 205.4L231 206.2L233.3 207L235.3 206.7L235.5 207.2L234.2 209.3L229.4 211.6L228.5 212.5L229.1 212.5L228.9 213L225.7 214L224.2 213.3L223.8 213.9L222.6 213.1L220.5 212.8L220.2 211.9L218.5 212.1L219.7 211.1L218.5 210.6L218.6 211.5L217.4 211.5L217.3 212L216.3 210.5L217.1 212L211.8 210.7L206.2 213.5L205.7 216.6L206.6 217.9L205 217.6L202.3 218.5L200.8 217.9L199 218.4L197.2 217.5L197.2 216.7L195.3 216.8L194.8 216.1L191.4 215.3L190.4 215.2L190.3 216.2L185.9 216.2L184.1 215.2L182.5 215.7L181.3 214.6L177.9 213.5L176.8 213.9L177.1 212.6L175.7 212.6L174.6 211.8L176.7 210.5L178.1 204.2L179.4 203.5L178.6 202.8L178.1 203.8L178.9 198.1L179.4 197.7L181.1 199.1L182.6 202L182.3 201.2L183 201.4L181.9 200.7L181.1 198.3L178.1 196.8L178.7 196.2L179.8 196.8L178.8 195.8L179.4 194.7L178.4 193.8L179 193L174.6 191.8L172.6 189.7L173.4 188.3L171.8 187.6L172.3 186.8L175.1 187.2L173.3 186.5L169.8 186.6L170.5 186.6L169.7 186.1L170.8 185.8L170.1 185.4L171 185.3L168 185.3L167.5 184.9L168.6 185L168.8 184.4L167.1 184.3L167.3 184.9L166.1 184.7L166 185.5L166 183.7L165.5 184.3L164.6 184L165.1 183.5L164 184L159.6 182.6L159.3 183.3L158.1 183.3L157.7 182.3L155.8 181.8L158.6 181.4L158 180.6L156.9 181L156.5 180.3L157 179.9L159.3 180.2L157.6 180L158.6 179.3L155.5 179.9L155.8 178.5L160.6 177.4L161.4 178.1L161.7 177.4L163.1 177.7L163.6 176.7L165.5 176.5L165.5 177L166.2 176.5L166.1 177.2L166.8 176.8L168.9 178.8L171.3 177.6L171.9 178.4L173 177.9L173.4 178.8L173.1 178L173.7 177.6L174.6 178.2L177.4 178L176.2 177.3L176.2 174.2L174.5 173.2L173.7 171L178 171.2L177.8 172.1L178.9 173.5L184.7 173.9L188.8 172.8L186.7 172.4L187.4 171.2L194 169.4L195.9 167.9L196.9 168L196.1 167.5L196.3 163.7L202.3 162.3Z"/>
    <path class="land" d="M241.2 219.3L241.9 218.9L241.1 218.2L242.1 216.9L244.7 215.9L245.8 216.3L246.2 214.2L246.7 214.1L247.5 219.7L246.5 220.9L246.5 222.5L245.4 224.7L242.6 223.4L243.5 222.6L241.7 222.2L242.7 221.2L241.5 221.3L242.3 220.3L241.2 219.3Z"/>
    <path class="land" d="M356.9 132.9L356 135.1L358.2 135.4L357 136.4L354.8 136.3L354 137.4L351.7 138L351.4 139.9L350.1 141.5L351.2 141.5L351.6 142.6L350 142.6L350.2 142.1L349.6 141.7L345.5 142.7L345.3 143.8L337.9 144.2L337 144L336.1 142.2L332 140.9L331.9 139.2L332.9 138.4L331.1 136.7L327.9 137L323.4 135.3L323.2 135.3L322.7 135.6L321.3 130.3L328 128.1L341.2 129.1L343.4 129L345.9 127.9L347.2 129.5L350.9 129.8L356.6 132.9Z"/>
    <path class="land" d="M281.3 163.8L282.4 163.7L282.2 162.9L283.4 162.8L284.8 164.3L287.6 164.5L288.8 165.4L291 165.1L291.6 165.5L291.6 165.6L290.2 166.7L293.1 168.7L295.4 167.9L294.6 166.5L298 167.7L299.9 167.3L300.1 167.9L299.1 168.2L299.4 168.6L300.7 169.4L301.8 169L305.3 169.9L307.1 172.4L305.2 172.6L300 176.6L296.4 176.6L295 178.2L294.5 177.5L292.2 176.9L289.4 177.3L282.5 175.6L282.1 177.2L281.2 177.1L280.4 178.4L276.3 178.2L273.5 176L272.4 175.9L269.6 173.8L267.3 172.9L265.7 170.9L266.6 169.9L264.8 169L263.7 167.2L265.1 168.2L266.5 166.8L269.3 166.7L273.2 164.7L278.3 163.6L277.9 162.6L279.1 162.6L280 163.8L281.2 163.9Z"/>
    <path class="land" d="M274.9 177.2L274.2 178.8L272.6 178.4L272.2 179.7L268 181.4L269.6 183.1L268.9 183.9L270.1 184.3L269.6 185.5L268.2 185L268.1 184.2L266.4 184.5L264.8 183.8L264.3 184.6L260.8 184.7L258.3 186L253.1 184.8L253.1 186L251.4 186.8L251.7 186.1L250.9 186.2L250 185.1L243.2 184.3L241.1 183.4L240 184.3L241.4 184.3L241.2 184.7L235 184.9L234.4 184L234.8 181.4L236.3 178.2L238.8 176L235.2 175.4L233.7 174.6L229.3 174.7L228 173L226.9 172.8L227.9 170.6L226.6 170.3L225.3 169L225.6 167.9L227.1 167.2L226.8 166.2L225.8 165.9L226.3 165.3L224.5 164.2L225.1 163.4L223.8 162.7L225.6 161.9L225 161.5L226 160.4L224.2 157.7L229.5 157L229.9 156.6L229 156L231.3 154.9L230.9 153.5L229 152.9L229.4 152.3L231.2 152.4L232.3 150L232.4 148.4L233.5 148.1L231.3 147.6L232 146.6L231.7 146.2L232.6 145.7L237.7 145.5L238.6 146.4L238 147L238.8 147.4L239.5 147L239.3 146.1L241.1 146.5L240.8 147.7L241.2 146.5L240.6 145.5L241.3 144.4L245.3 144.4L247.7 146.2L249.3 146.5L247.7 146.1L246.5 144.7L243.4 144L242.9 143.3L244.1 143L242.7 142.4L243.7 141.5L241.4 141.4L244 140.3L241.9 138.9L241.8 137.8L250 138.6L250.5 140L249.3 140.5L251.3 140.4L251.3 141.5L252.4 140.7L255.1 141.6L257.7 141.1L257.2 142.4L255.2 143.3L256.1 143.8L257.9 143.5L259.7 144.2L261.2 142.6L263.8 142.3L263.9 143L263.9 142.4L266.6 140.4L269.1 140.8L266 141.1L265.6 141.9L269.9 140.8L270.4 141.8L272.6 142.9L274.2 142.5L274.8 142.9L274.4 143.3L275.5 144L274.9 144.5L277.8 145.2L278.9 148.4L276.8 151L280.2 152.7L279.6 154L280.9 155.9L279.8 157.7L280.8 158.6L280.6 159.4L282.2 160L282.6 161.3L281.9 162.9L280.8 164.1L279.1 162.6L277.9 162.6L278.3 163.6L273.2 164.7L269.3 166.7L266.5 166.8L265.1 168.2L263.7 167.2L264.8 169L266.6 169.9L265.7 170.9L267.3 172.9L274.7 177.1Z"/>
    <path class="land" d="M277.4 144L275 144.5L275.4 143.6L276.4 143.5L274.6 143.4L274.6 142.5L277.4 144Z"/>
    <path class="land" d="M274.1 141.1L274.3 141.8L273.9 141.3L272.7 141.4L271.9 141.8L272.2 142.1L270.6 141.7L270.6 141.2L271.3 141.1L270.6 140.8L271.4 140.5L270.6 140.1L273 140.3L272 139.6L271.3 140L271.3 139.3L273.7 139.8L273.3 140.5L274 141Z"/>
    <path class="land" d="M342.2 118.7L343.8 115.8L342.6 115.3L341 116.3L338.6 115.7L338.2 114.5L337.1 114.3L337 113.4L339.5 112.9L336.6 113L337.2 112.6L336.6 111.9L337.9 111.6L336.5 111.3L337.2 111L336.9 110.1L340.8 109.7L340.5 109L341.7 109.2L341.3 108.9L342.4 108.5L345.2 108.6L345.4 107.8L349.3 108.3L350.2 108L349.8 107.2L351 107.8L351.1 107.2L352 107.8L353 107.4L359.1 108.6L365.1 108.9L366.1 108.4L367.1 109.2L365.2 109.7L362.2 113L363.1 115.4L362.7 116.5L363.8 118.4L364.7 118.8L362.9 119.1L361.8 120.9L358.7 120.3L356.3 121L353.2 118.9L348.5 117.4L348.2 118L347.3 117.5L342.5 118.8Z"/>
    <path class="land" d="M335.3 114.7L335.9 115.1L334.8 114.8L332.1 116.4L329.3 116.7L328.7 117.9L327.5 118.4L327.2 118L328.7 116.9L326.6 116.2L327.5 115.6L326.3 114.6L328 115.2L328.7 114.4L331.2 113.8L335.1 114.6Z"/>
    <path class="land" d="M329.3 112.1L327.8 111.8L330.4 111.7L331.3 110.9L333.4 111.6L334.1 112.6L332.4 112.6L331 113.5L329.5 112.1Z"/>
    <path class="land" d="M361.8 120.9L362.9 120.9L362.8 121.6L364.9 122.4L363.6 125.3L365.4 125.5L365.1 126L366.8 127.2L367.3 129.1L363.7 131.2L363.3 132.1L359.4 131.8L356.9 132.9L354.9 132.4L350.9 129.8L347.2 129.5L345.9 127.9L343.4 129L341.2 129.1L328 128.1L321.3 130.3L320.8 128.4L321 127.4L321.5 128.1L320.9 127.2L321.3 125.4L323.5 124.3L323.7 122.5L325.7 120.6L331.3 119.4L331.6 120.6L334.7 121.9L335.5 123.7L338.3 124.5L342.8 122.7L342.2 118.7L347.3 117.5L353.2 118.9L356.3 121L358.7 120.3L361.6 121Z"/>
    <path class="land" d="M318.6 47L327.9 50.6L332.6 51.1L334.3 51.8L334.9 52.9L335.8 52.7L338.1 54L336.9 54.6L337.4 56.3L336.6 57L338.8 57.4L337.6 59.1L340.3 61.4L339.6 61.7L339.5 62.9L338 63.6L338.1 64.5L341.3 67.7L335.1 67.6L335.4 68L334.5 68.4L331.6 67.1L331.7 68.1L330 67.4L329.5 68.2L328.8 68.1L329.9 68.6L328.6 68.9L329.4 68.6L330 69.5L325.9 68.3L328.7 69.4L326.5 69.5L327.6 69.9L327 70.4L324.1 70.4L325.5 71.1L325 71.4L322.8 70.7L324.9 71.9L324.8 72.5L321.2 74L323 74.4L322.5 74.6L323 75.1L321.8 75L324.1 75.6L324.4 76L323.2 76L324.9 76.5L320.8 78.4L318.9 80.7L317.8 80.5L317.1 81.4L316.7 80.9L316.6 81.6L316.4 81.1L316.1 81.6L314.8 81.6L312.6 83L311 82.2L311.5 83.1L310 82.8L308.5 84.6L306.6 84.1L307.5 84.5L306.2 84.3L306.6 84.8L305.7 84.6L305.4 84.6L305.9 85.1L304.8 85.7L303.3 85.8L305.4 86.1L304.3 86L305 86.4L303.1 86.6L303.6 86.8L303 87.2L301.3 87L300.7 85.8L299.8 85.8L301.7 87.5L300.9 87.9L302.1 88.4L301.3 88.3L299.9 89.4L298.1 88.7L297.4 89.1L297.8 90.1L299.5 90.7L298.6 90.8L298.3 92.2L297.5 92.6L298.5 94.6L296.2 94L297 94.2L295.9 94.5L296.8 94.6L296.9 94.7L295.7 94.9L295.8 95L296.5 95L295.8 95.1L296.7 95.8L296 96.1L297.1 96.6L295.9 96.6L296.7 97.1L296.3 98.5L296.9 98.6L296.3 99L297.5 100.1L296.5 100.6L299 100.9L299.6 101.8L301.6 101.3L303.2 103L304.5 102.8L305.6 103.5L303.8 103L305.4 104.6L305.9 104.1L306.9 105L307 104.3L307.5 105.4L308.6 105.7L308.4 106.1L307.4 105.5L307.7 106L306.4 106.5L308.6 106.7L303.5 108.4L303.7 108.9L301.8 108.9L303.2 109.4L304.8 109.3L304.8 108.7L305.9 109.4L303.6 109.4L304.5 110.5L301.8 111.2L301 112.4L300.3 111.7L300.3 112.2L300.3 110.7L299.9 111.1L299.5 110.4L299.1 112.4L298.2 112.1L298.5 112.8L297.6 113.1L295.5 113.1L296.3 113.4L294.8 113.9L290 113.8L294 114L294.9 114.7L291.5 114.8L294 115.8L293.4 116.1L294.2 116.6L293.9 117.1L292.9 116.6L293.8 118.6L292.2 117.9L292.6 118.6L291.9 118.5L293.4 119.5L291.6 118.6L293.5 119.8L292.2 120.3L293.3 121.3L291.9 122.5L292.6 124L291.7 124L291.9 125.7L290.5 126.6L288.1 130.1L286.2 129.4L280.6 129.7L281 130.5L279.2 130.5L277.6 131.6L277.3 132.5L278.4 133.7L277.3 134.6L271.6 135L268.6 134.7L269.5 134.3L269.1 133.6L270 132.7L266.1 128.8L268.4 129.2L267.2 128L268.9 127.8L269.2 127.2L265.5 124.8L263.9 122.8L263.6 121.4L263.1 122.1L262.6 121.8L262.7 120.3L262.2 120.1L262.7 119.8L261.3 119.8L262 119.3L261 118.9L261.7 118.5L262.5 115.8L260 116.3L261.1 115.2L260.3 114.9L259.3 116.2L259.5 115.1L258.2 115.7L258.6 114.2L257.9 113.3L258.1 112L257.5 111.8L258.9 110.8L259.7 112.1L261.1 112L262 109.9L261.1 107.6L262.6 106.9L262.2 105.9L264.1 105.7L266.3 104.5L266.4 103L267.1 102.4L264.8 98.6L267.7 98.3L268.9 96.4L264.2 94L265.2 90.4L263.8 88.4L263.8 86.4L263.9 86.3L264.6 85.8L263.6 84.5L263.2 83.9L264.5 82.9L264.6 82.7L264.6 82.6L264.3 81.9L268.1 79.4L269.5 79L271.1 78.8L275.8 79.3L275.9 79.2L277 78.3L276.7 76.4L273.8 75.6L279.4 70.9L280.2 67.8L280.2 67.5L279.5 65.7L285.6 64.8L285.2 63.4L291.5 59.9L291.7 58.8L289.7 57.4L290.1 56.9L292 56.5L293.9 54.3L297.4 53L301.2 53.9L302.9 52.4L302.8 50.2L314.6 51.3L316.2 50.6L314.3 50.2L316.9 48.5L316.8 47.9L316.8 47.8L315.2 47.1L316.9 47.1Z"/>
    <path class="land" d="M296.1 122.3L292.4 128.8L291.5 129.3L291.8 126.6L295.1 122.4L296.1 122.2Z"/>
    <path class="land" d="M308.4 118.7L306.6 120.3L306.7 121.3L307.7 121.8L304.3 123.4L304.3 124.3L302.8 124.9L303.6 123.7L303 123.9L302.4 122.7L302.9 121.9L302.6 120.8L306.1 118.4L306.9 119L307.2 118.4L308.3 118.7Z"/>
    <path class="land" d="M262 116.4L262 117.1L259.7 117.4L259.5 116.9L261.2 116L261.9 116.3Z"/>
    <path class="land" d="M372.1 47.1L368.6 47.9L371.1 48.3L368.8 50.3L370.2 52.4L374.5 53.2L378.8 55.7L378.3 56.8L372.7 60.7L378.1 65.8L379.5 68.4L376.9 68.9L377.8 69.3L376.1 71.4L377.7 71.6L377.8 72.2L376.2 72.7L376.1 73L376.4 73.5L376.9 74L377.4 74.3L379.6 74.4L380 75.2L378.5 75.7L379 76.8L382.4 78L382.3 79.2L378.7 81L386.5 84.4L388.9 86.4L386.8 89L384.7 90.3L373.7 97.1L364.3 101.4L364.1 101.9L362.5 102.1L360.9 101.3L359.3 102.2L356.7 102.3L356.2 101.9L356.8 101.3L357.9 101.4L357.3 100.9L355.3 102.6L352.6 101.9L353.8 102.9L352.1 102.5L352.7 103.5L351.5 103L352.1 103.3L351.4 103.5L351 102.7L346.9 104.1L343.8 104.1L344.1 104.7L343.1 105.1L342.3 105.1L342.3 104.6L336.6 105.3L337.3 104.6L335.5 106.1L333.1 106.3L335.9 105L334.6 105.5L335.5 104.8L333 104.1L334.4 102.8L330.8 103.7L331.6 103.3L330.4 103.4L331.4 102.5L326 102L326.4 101L324.9 101.9L323.6 101.3L324 101.1L323.3 100.6L324 100.4L323.1 99.7L323.8 99.3L322.9 98.2L324.1 98.2L323.8 97.5L324.6 97.3L323.9 96L324.7 96L323.7 95.5L324.6 95.6L324.8 95.5L324.1 95L325.6 95.2L323.7 92.8L322.5 92.3L323.5 90.9L322.7 89.6L322.4 90.1L321.9 89.6L322.3 88.5L321.4 88.4L321.7 87.2L323.5 86.6L324.2 85.3L325.4 85.6L324.2 84.4L326.7 84.1L327.3 84.9L327.6 84.3L329.8 83.7L328.6 82.8L330 83.1L329.2 82.5L330.2 82.8L331.2 81.3L332.4 81.8L333.2 80.7L336.5 79.9L336.4 79L337.7 79.2L337.5 78.7L342.5 76L343.7 74.2L347.3 73.5L349 74L347.9 73.2L349.5 73.2L348 72.2L348.8 71.5L348.4 70.5L349 70L347.2 69L344.6 68.9L343.8 68L344.8 67.1L341.6 67.9L340.4 66.2L338.3 64.9L338 63.6L339.5 62.9L339.6 61.7L340.3 61.4L337.6 59.1L338.8 57.4L336.6 57L337.4 56.3L336.9 54.6L338.1 54L335.8 52.7L334.9 52.9L334.3 51.8L332.6 51.1L327.9 50.6L318.6 47L319.2 46.6L319.4 46.6L321.2 47L321.5 47L321.6 47L322 46.7L321.2 46.1L321.6 45.7L323 45.4L325.1 45.5L329.8 48.4L330 49L330 49.1L335.1 49.7L339.8 48.4L346.1 50.1L347.5 49.5L348 48.5L351.8 47.3L351.4 45.9L353.1 42.8L356.5 41.3L360.2 41.5L365.1 40.4L368.5 42.1L373.2 42.9L374.6 44.3L373.8 44.8L371.5 45.9L371.3 46.7Z"/>
    <path class="land" d="M332.8 103.5L333.6 103.2L332.9 104.3L331.3 105.2L330.4 105.1L330.1 104.3L331.3 104.1L330.1 104.1L330.3 103.6L332.7 103.6Z"/>
    <path class="land" d="M225.4 168.5L225.7 169.6L227.9 170.6L227.9 171.1L226.9 172.8L224.4 172.9L223.3 172.2L223.9 171.6L222.9 170L224.4 168.2L225.3 168.5Z"/>
    <path class="land" d="M202.4 162.3L207.7 160.4L207.9 161.3L211.4 161.5L213.3 160.5L213.8 161.1L213.5 160.5L214.5 160.6L214.6 159.9L216.8 159.7L216.7 160.2L217.7 160.3L218.4 159.8L219.6 161.2L221.4 161L223.6 161.8L222.3 163.8L222.7 164.4L224.7 164.4L226.3 165.3L225.8 165.9L226.8 166.2L227.1 167.2L225.4 168.5L224.4 168.2L222.9 170L223.9 171.6L223.6 172.1L221.3 172.5L219.9 171.2L217.3 170.6L216.9 169.5L217.4 168.3L214.8 169.7L212.7 169.4L213.1 167.6L211.9 167.1L209.9 167.3L209.3 166.2L207.2 165.9L206.3 164.3L204.1 164.6L202.8 163.8L202.4 162.4Z"/>
    <path class="land" d="M174.6 211.7L174.9 212.3L177.1 212.6L176.8 213.9L177.9 213.5L181.3 214.6L182.5 215.7L184.1 215.2L185.9 216.2L187.9 216.3L190.4 216.2L190.4 215.2L191.4 215.3L194.8 216.1L195.5 217.8L197.1 217.4L199.1 218.4L206.6 217.9L207.5 218.6L206.2 219.2L206.9 221L199.8 225.1L192.7 226.7L190.7 228.2L191.7 229.1L189.8 229.7L184.1 236.6L185.1 239.9L187.7 241.5L182.9 244.1L182.8 244.4L182.9 245L182.2 245.3L180.7 248L181.5 248.9L177.7 249.1L175.4 250.4L174 253.1L172.4 254.5L171 253.8L168.7 254.8L157.9 254.5L156.2 255.9L152.9 256.5L151.2 258.8L150.1 259.1L147.4 257.9L145.6 255.7L146.5 255.9L144.8 254.4L146.4 253.2L145.1 254L141.9 251.7L142.2 250.8L141.7 251.6L138.5 251.5L137.8 249.1L139.5 246.5L141.1 246.2L141.5 245.1L140.5 245.2L138.9 243.4L139.4 241.7L140.9 240.8L141.3 239.5L139.6 238.6L139.2 237L137.6 235.5L141.1 235.4L142 233.4L140.9 232.3L142.5 231.2L142.4 228L141.6 226.9L146.3 223.4L144.2 222.8L143.7 220.9L140.3 220.7L138.4 221.9L135.4 221.2L133.6 221.8L133.3 221.2L134.2 220.4L133.4 219.6L129.1 221.3L129 219.9L130.8 218.6L129.2 219L130.6 217.8L128.7 217.6L129.5 217.7L130.1 216.2L128.3 217.2L128.2 216.1L129.1 215.3L127.7 215.8L127.5 214.7L126.5 214.7L126.6 213.9L129.4 212L132.7 211.6L133.4 212.2L133.7 211.5L132.8 211.3L133.7 211.1L132.7 211.2L132.8 210.6L136.8 209.1L139.5 210.6L140.9 210.6L140.9 211.1L141.6 210.6L147.2 210.6L148.6 210L151.4 211L157.4 211.7L163.2 210.9L166.8 212.1L167.2 211.4L168.4 211.3L172.5 212.4L174.5 211.7Z"/>
    <path class="land" d="M196.5 239.3L195.2 241L194 240.7L194.9 239.4L196.4 239.3Z"/>
    <path class="land" d="M207.7 234.9L208.5 235.1L208.3 235.7L205.9 238.1L204.1 237.5L203.6 236.4L202.2 236.9L201.3 236L206.6 233.7L206 234L206.7 234.2L206.3 234.8L207.6 234.9Z"/>
    <path class="land" d="M213.8 234L213.4 234.7L210.6 233.4L212.5 233L213.8 233.8Z"/>
    <path class="land" d="M241.8 137.8L241.9 136.3L240.5 136.5L240.7 135.9L242 136.2L241.5 134.3L239.5 133.4L239.1 133.6L239.5 134.1L238.1 133.6L238.7 132.5L238.3 130.8L238.8 131.9L240.1 131.3L239.3 130.2L238.5 130L238.2 130.6L238.7 126.4L239.5 127.2L241.2 127L242.2 127.6L241.9 126.7L244.4 125.5L245.1 126.2L244.3 127.1L244.9 126.5L246 127.3L245.9 126.3L245 126.3L245.5 125.9L245.2 124.7L249.8 123.9L244.7 123.9L241.9 124.6L240.7 125.6L240.9 126.3L240.1 126.3L241.3 126.3L241.1 126.9L239.5 125.8L239.1 126.2L239.1 125.5L241.5 123.5L246.6 123.3L250.2 120.5L254.4 119.5L253.1 120.7L253.9 121.5L253.8 122.8L252.6 124.3L249.9 123.9L252.4 124.4L252.6 126.1L249.1 126.6L252.5 126.2L251.5 127.7L252.5 126.9L255.6 127.3L256.6 127.9L256.2 128.6L255.1 129.7L254.4 129.2L253.9 130.1L252.6 129.4L253.5 129.3L253 128.8L251.8 129.8L252.2 130.6L251.5 131.8L249.5 131.7L250.7 131.9L250.4 132.7L247.5 132.6L249.4 133.1L247.1 134L248.2 134.1L247.7 134.4L248.5 135.6L246.7 136.9L248.6 137.2L248.7 138.2L247.9 137.6L246 138.4L242 137.9Z"/>
    <path class="land" d="M262.2 138.9L262 139.4L259.7 139.5L256.8 138.6L257.5 138.2L257 137.7L258.3 137.4L260.6 138.4L261 137.7L262.3 138.8Z"/>
    <path class="land" d="M283.4 136.3L282.9 137.2L280.5 136.6L280.9 135.2L283.3 136.2Z"/>
    <path class="land" d="M254.6 136.7L250.8 136.6L251.3 136.4L251.4 136.3L250.4 135.9L250.3 136.3L249.6 134.9L248.5 134.2L249.2 134.3L248.5 134L248.3 134L252.3 133.2L253.7 133.7L253.4 134.3L254.3 134L254.4 133.2L255.1 134L253.9 134.3L254.8 134.3L255.7 135.3L254.9 136.8Z"/>
    <path class="land" d="M263.5 137.8L264.3 138.2L263 139.1L262.9 139.9L261.4 137.5L262.5 137.3L260.7 136.6L262.1 136.8L261.4 136.4L262 136.2L258.5 135.9L257.4 134.9L258.2 134.6L257.3 133.9L257.6 133.3L256.3 132.9L256.3 132.9L257.4 132.9L256 132.4L259.1 132.3L260.1 131.3L258.5 130.8L261.7 130.9L260.7 132.1L261.5 132L261 132.5L261.8 132.9L262.8 131.2L263.5 132.4L262.6 132.9L263.6 133L263.4 131.1L262.3 130.9L264.8 129.9L266.5 130.1L267.2 130.5L266.5 131.2L267.1 132.6L264.5 134L266.2 135.3L263.3 136.1L264.3 136.5L264.2 137.2L262.6 137.2L263.4 137.8Z"/>
    <path class="land" d="M242.8 126L241.8 126.4L241 125.7L243.4 124.5L242.9 125.9Z"/>
    <path class="land" d="M333.1 182.4L334.7 181.5L336.8 182.3L343.7 182.5L346 184L348.4 182.8L354.2 182.1L355.1 180.7L357.5 180.3L359.5 181L361.3 184.1L366.1 188.3L367.5 190.7L366.5 194.9L367 197.3L366.3 197.6L368.1 199.3L369.7 199.8L370.9 199.9L371 199.3L371.9 199.6L374.4 198.5L376.7 199.4L376 202.5L372.4 203.4L373.3 202.6L372.7 202.2L373.1 201.6L371.5 201.7L372 202.9L371 203.6L372.3 203.5L370.8 203.8L370.8 204.8L371.9 203.8L370 205.8L370.3 207.8L369.7 209.5L368.7 209.5L367.4 209.3L366 208.9L365.8 208.8L365.4 207.8L362 207.7L359.7 206.7L354.1 207.7L351.7 209.5L349.3 210L337 208.6L333.3 208.9L333 208L334 207.2L331.9 206.3L330.5 204.8L332.2 204.2L332 203.8L330.2 203.1L328.2 204.6L327.4 203.6L323.5 202.7L323.3 202.3L324.4 202.1L323.3 201.4L324.2 200.4L319.5 198.3L319.6 196.5L316.1 194.3L321.9 193.1L322.9 191.1L324.2 190.4L325.1 188.4L327.4 186L327.5 185.2L329.2 183.9L331.5 183.6L333 182.5Z"/>
    <path class="land" d="M333.1 182.4L331.5 183.6L329.2 183.9L327.5 185.2L324.2 190.4L322.9 191.1L322.8 192.3L321.3 193.4L319.8 193.2L318.8 194.1L316.1 194.3L311.7 193.9L309.8 195.1L305.9 195.5L304.3 196.6L300.8 196.4L297.2 195L294.3 192.5L292.2 191.7L291 189.6L289.5 189.4L290.7 188.5L292 188.5L291.7 186L293.3 185.1L291.5 184.3L292.5 183.7L295.8 184L295.3 183L296.5 182L300.6 183.7L306.2 183.5L307 183.2L306.5 182.3L307.1 181.8L310.9 181.6L312.2 180.6L314.1 181.3L316.7 180.3L317.7 178.7L319.7 178.5L321.7 179L323.8 178.5L325.9 180L328.9 179.4L331.3 181.5L332.8 181.6L332.8 182.3Z"/>
    <path class="land" d="M330.9 175.2L328.3 178.4L328 179.7L325.7 179.9L323.7 178.5L317.9 178.7L316.7 180.3L314.1 181.3L312.2 180.6L310.9 181.6L307.1 181.8L306.5 182.3L307 183.2L306.2 183.5L300.1 183.6L297.5 182.1L295.8 181.9L294.4 179.2L296 176.8L298.8 176.9L300.8 176.2L302.4 175.2L302.8 174L305.3 172.5L307.7 172.4L307.9 173.2L308.9 173.2L311 171.8L312.2 173.1L313.1 173.2L313 174.4L314.9 174.6L316.6 173.2L319 173.1L320.5 173.8L321.4 173L324.9 172.9L330.7 175.1Z"/>
    <path class="land" d="M307.1 172.4L305.3 169.9L301.8 169L300.7 169.4L299.4 168.6L299.1 168.2L300.1 167.9L299.9 167.3L298 167.7L294.6 166.5L295.4 167.9L293.1 168.7L290.2 166.7L291.6 165.6L291.6 165.5L291 165.1L288.8 165.4L287.6 164.5L284.8 164.3L283.4 162.8L282.2 162.9L282.4 163.7L281.3 163.8L282.6 161.1L282.1 160L280.6 159.4L280.8 158.6L279.8 157.7L280.9 155.9L279.6 154L280.2 152.7L276.8 151L278.9 148.4L277.9 145.2L280.1 145.9L279.6 145.5L280.1 144.5L278.8 144.2L278.1 144.7L277.4 144L290 141.9L292.1 140.2L297.5 138.8L303.8 138.2L307 139.4L304.4 138.9L305.5 140.8L307.4 141.3L312.1 140.6L333.6 141.1L336.8 142.7L337.6 146.1L339.7 150.3L339.7 151.9L336.4 153.1L334.9 154.6L337.9 155.9L337.3 159L338.3 160.2L337.9 160.9L341.2 163.8L340 164.1L341 165.8L340.1 166.7L338.2 166.9L331.7 172L331.8 174.6L332.9 175.7L327.7 174.4L327 173.6L324.9 172.9L321.4 173L320.5 173.8L319 173.1L316.6 173.2L314.9 174.6L313 174.4L313.1 173.2L312.2 173.1L311.1 171.8L309.1 173.2L307.9 173.2L307.7 172.4Z"/>
    <path class="land" d="M139.6 136.7L138.6 137.1L137.7 138.8L135.2 139.1L136.7 139.7L133.7 140.6L135.7 142.2L139.1 142.8L141.1 140.9L143.5 142.5L143.6 143.3L145.4 142.9L146.9 143.5L145.3 143.5L145.2 144.1L146.1 144.4L146.2 145.8L147.1 146.4L146.4 147L147.2 147.6L146.2 147.8L147 148.2L147.7 150.3L145.3 154.2L144.4 154.1L145.2 154.3L145.3 155.3L142.7 154.7L141.6 155.6L141.2 154.6L141.1 155.5L137.4 155.8L137.4 156.5L135.8 156.5L134.7 157.6L132.2 157.1L132.9 157.9L131.2 158.3L131.4 158.9L129.9 158.7L130.3 159.1L126.9 159.7L125.5 159.2L123.1 160L124.9 158.9L122.9 159.3L125.4 158.5L124.8 158L120.9 159.1L124.6 157.2L121.1 158.1L120.4 157.4L119.8 157.8L119.4 157.2L120.3 157L120.2 156.5L123.5 155.4L119.1 155.8L119 155.3L121.6 154.4L123.6 154.8L122.3 153.8L124.3 153.4L124.2 152.8L130 152.1L128.6 152L128.7 151.4L126.5 152.6L124.6 152.1L122.4 152.8L125.2 151.6L126.1 150.4L125.3 150.4L126.6 149.1L127.9 149.2L129 148.6L124.4 148.5L124.8 147.5L123.2 148.1L122.6 147.9L123.2 147.3L120.8 147.4L121.9 146.9L120.8 146.4L123.9 146.2L122.5 145.9L122.5 145.1L124.8 144.4L122.3 144.4L122.5 143.9L123.3 144.1L122.6 143.4L123 142.9L122.1 143.1L122.5 142.8L121.9 142.2L121.2 143L121.2 142.1L122 141.6L122.5 142.3L123.5 141.9L123.3 141.4L126.6 141.6L127.5 142.6L128 141.7L131.5 142.2L130.8 141.9L131.8 141.8L131.5 141.5L130.5 141.3L133.4 140.4L134 139.4L131.9 140L132.1 139.5L129.7 139.1L132.2 138.7L131.2 138.3L131.6 138.1L132.7 138.2L131.9 137.1L132.7 136.9L133 136.1L134.9 135.7L135.7 136.3L136.1 135.5L136.7 136.5L136.7 135.8L136.1 135.8L137.1 135.4L137.8 136.4L137 137.4L138.3 136.8L137.8 135.3L139.6 135.3L138.7 134.7L141.6 135.6L139.6 136.7Z"/>
    <path class="land" d="M320.8 228L324.7 227.9L327.7 226.1L331.9 226.2L332.4 224.9L337.8 224.7L341.8 223.4L343.5 223.4L345.2 224.8L346 224.5L348.5 225.5L353.9 224.8L354.2 223.7L353.4 222.6L354.6 222.2L356.9 223.1L357.2 224.5L355.2 225.5L355.4 227.3L353.6 228.8L353.5 228.1L347.6 227L345.4 228L343.5 227.3L341 228.8L338.5 228.6L338.3 229.1L339.7 230L339.1 230.2L339.4 230.8L340.3 230.6L342.8 232.5L339.9 231.1L338.5 231.2L338.4 231.8L340.2 232.7L340.2 233.8L338.2 232.1L336.7 231.7L336.2 232.5L338.6 233.9L336.2 233.7L335.8 232L333.1 231L332.7 230.2L333.7 229.9L333.3 229.3L331.1 230.5L331.7 231.1L331.1 233.1L336 238.7L334.2 239.3L335.2 238.7L333.4 237.6L332.7 238.5L333.6 239.8L334.3 239.7L330.8 240.8L335.8 242.1L336 243.1L337.5 243.1L340.8 245.2L340.2 245.5L340.8 247.7L340.5 248.6L337.5 246L333.8 247.1L335 247.5L334.9 248.8L336 249.3L336.4 248.6L336.4 249.4L337.2 249.9L334.9 250.8L334.3 250.5L334.7 249.9L332.1 249.1L335.1 256.4L331.8 254L330.5 255.3L330.6 256.6L328.4 252.6L327.1 252.8L327.2 254.1L326.7 254.5L325.5 253.9L324.7 252L325.3 250.2L321.7 247.1L323.1 246.2L323.4 244.9L325 245.3L326.5 244.1L333 246.7L333.7 246.5L333 246L335.3 245.3L332.6 244.9L331.6 243.8L331 244.4L330 243.4L329.9 244.1L327.2 243.7L324.3 244.4L323.1 243.1L323.2 243.8L322 244.4L320.9 242.1L319.3 241.1L319.5 240.2L321.5 240.8L322.1 240.7L322 239.9L320 239.7L319.9 239.2L319.4 239.7L319.9 240.1L319.3 240.2L317.7 238.1L316.1 237.3L316.3 236.6L315.4 236.5L315.7 235.9L314.6 235.4L316.2 235.6L316.4 234.7L317.1 234.6L316.5 233.6L318.7 232.9L319.5 230.8L321.1 229.9L320.8 228.3Z"/>
    <path class="land" d="M355.2 263.6L354.9 264.9L354.1 265.6L346.8 266L345 266L345 265.1L342.8 264.4L337.6 264L337.2 263.7L337.6 261.9L338.5 262.3L338.6 261.2L339.1 262.1L341.4 261.8L340.7 262.4L341.9 262.5L342.4 263.3L344.9 262.8L349.6 263.7L351.6 263.4L351.3 264.4L351.8 264.8L355 263.6Z"/>
    <path class="land" d="M367.5 256.4L366.5 258.8L364.5 259.9L363.9 258.1L367.5 256.3Z"/>
    <path class="land" d="M320.4 247.6L321 248.2L319.8 248.6L318.6 247.5L319 246.8L320.3 247.5Z"/>
    <path class="land" d="M319.3 245.9L317.9 245.6L317.4 244.5L316.8 245.1L317.1 244L318 244.1L318 243.3L319.7 245.5L319.4 245.9Z"/>
    <path class="land" d="M354.2 242.8L353.8 244.9L353.2 245.3L352.2 244.7L353.1 244.1L352.1 242.6L354.1 242.7Z"/>
    <path class="land" d="M344 245.3L343.9 246.4L342.7 246.5L340.5 243.7L338 243.7L337.7 242.6L334.9 240.9L332.8 241L335.6 239.6L337.7 241.4L341.3 242.1L341.9 244.9L343.5 245.4Z"/>
    <path class="land" d="M357 239.6L356 239.2L356.6 240L355.8 240.1L354.1 239.7L353.7 239.4L354.6 238.6L353.5 239.3L352.4 239L352.6 238L355.3 237.4L356.9 239.5Z"/>
    <path class="land" d="M315.2 237.1L315.3 237.6L314 237.1L312.2 235.1L314.2 234.8L313.6 235.7L314.2 236.9L315.1 237Z"/>
    <path class="land" d="M349.6 233.2L348.9 234.8L348.3 234L348.1 234.7L347 234.5L346.9 233.5L349.4 233.3Z"/>
    <path class="land" d="M295 178.2L294.3 179.8L296.3 182.1L295.3 183L295.8 184L291.7 184.1L293.3 185.1L291.7 186L292 188.5L290.7 188.5L288.8 189.6L289 190.6L282.9 190.8L279.5 192.5L265.8 190.5L264 189.1L264.4 188L257.9 188.8L256 190L253.5 189.5L252.8 188.6L251.1 189.5L247.7 188.2L247.3 186.8L248.1 185.6L247.5 185.1L248.9 184.8L250.5 185.4L250.9 186.2L251.7 186.1L251.4 186.8L253.1 186L253.1 184.8L258.3 186L260.8 184.7L264.3 184.6L264.8 183.8L266.4 184.5L268.1 184.2L268.2 185L269.6 185.5L270.1 184.3L268.9 183.9L269.6 183.1L268 181.4L272.2 179.7L272.6 178.4L274.2 178.8L274.9 177.2L276.5 178.3L280.4 178.4L281.2 177.1L282.1 177.2L282.5 175.6L289.4 177.3L292.2 176.9L294.7 178.1Z"/>
    <path class="land" d="M231.2 195.4L236.5 195.5L238.2 194.1L238.1 193.2L240.1 192L240.3 193.4L242.7 194.4L242.5 195.1L244 196.1L244 194.7L245.4 193.5L245.8 191.8L246.7 191.7L247.4 193L249.8 192.6L250.9 193.5L251.3 192.4L250.6 191.5L251.6 190.9L253.2 191.5L252.7 190.6L253.3 189.4L256.8 190L257.9 188.8L264.4 188L264 189.1L265.8 190.5L274.1 191.6L272 193.1L273.7 193.8L272.6 194.9L273.5 195L273.3 196L274.6 196.6L275.1 197.6L274.2 197.6L274.8 197.4L273.3 196.3L272.2 197L270.4 196.4L270.2 197.2L265.9 198.6L266.9 197.8L265.8 197.9L264.2 199.4L265.2 199.9L265.6 201.3L266.6 201.6L265.9 202.6L264.9 202.5L265.6 206.2L267.7 207.8L273.6 210.6L276.5 216.8L280.8 220.1L283.5 221.1L289.8 221.1L290.1 222L288.3 223.1L288.5 224L301.8 229.3L305.1 232.6L304 234.8L302.2 234L300.9 231.6L297.9 231.3L296.6 230.8L297.4 230.3L294.8 230.6L292.8 232.9L293 233.7L292 234.9L292.4 235.7L296.3 237.3L296.1 239.3L296.6 239.7L296 240.5L294.9 240.3L292.7 241.2L292.6 243.6L290 245.4L289.3 246.7L286.6 246.3L286.5 244.9L288.3 243.3L287.8 242.1L289.9 241.6L290.3 240.8L286.5 233L284.2 233.3L281.9 231.9L282.5 230.9L281.1 229.2L278.3 229.8L279.1 228.8L277.9 228.1L276.4 228.4L274.3 225.4L269.9 225.6L264.7 222.3L263.3 220.7L262.1 220.4L261 218.8L259.2 218L257.5 218.1L257.8 217L255.1 215.5L255.3 214.7L253.6 214.6L253.8 212.6L251 207.6L242.4 205L240.5 205.8L238 208.5L234.3 209.1L235.5 207.4L235.3 206.7L233.3 207L230.9 206.2L230.1 204.4L231.5 203.4L231.1 202.5L229.5 202L228.6 200.7L231.8 199.7L232.1 198.7L229.7 196.5L231.2 195.5Z"/>
    <path class="land" d="M285.9 244.4L286.6 244.6L283.1 249.7L284.6 252.7L283.5 253.2L283.2 254.9L279.2 254.1L277.8 252.5L274.2 251.6L270.7 249.6L267.4 249.1L266 247.5L266.4 246.2L267.9 245.1L269 246.1L271.7 244.9L272.1 245.7L274.7 246.5L279.3 246L281.9 245.1L283 245.5L284 244.6L285.8 244.4Z"/>
    <path class="land" d="M249 229.9L248 231.8L248.6 232.9L247.5 239L244 238.2L244.1 239.9L241.6 240.8L240 238.6L240.4 235L241.2 235.4L241.1 234.4L240.1 234L239.9 233.3L240.7 232.8L240 230.5L239.4 229.7L238.5 229.7L238.8 227.2L239.3 227.9L240.9 228.2L245.4 225.4L246.8 226.5L247.5 226.2L247.2 226.9L248.2 227L247.2 227.5L248.6 228L248.2 228.3L249 229.8Z"/>
    <path class="land" d="M232.4 148.4L231.3 152.3L229.4 152.3L229 152.9L231.4 154.1L231.3 154.9L229 156.1L229.9 156.7L224.2 157.6L226 159.9L225 161.5L225.6 161.9L223.7 162.6L225.1 163.4L224.5 164.5L222.3 163.9L223.6 161.8L221.4 161L219.6 161.2L218.4 159.8L217.7 160.3L216.7 160.2L216.8 159.7L215.9 160.2L214.9 159.8L214.1 160.6L211.8 159.9L210.7 160.3L208.3 159.3L210.9 158.9L213.7 160L211.8 159.1L213.2 159.1L212.6 158.7L213 158.4L211 157.6L212.3 157.4L211.9 156.5L215.1 154.3L216.6 150.2L218.8 150.3L222.1 148.1L224.6 147.4L230 147.1L232.3 148.4Z"/>
    <path class="land" d="M207.7 160.4L213.3 160.5L211.4 161.5L208.1 161.3L207.7 160.7Z"/>
    <path class="land" d="M292.2 191.7L294.3 192.5L297.2 195L300.8 196.4L304.3 196.6L305.9 195.5L307.5 195.4L307.2 196.1L308 197.1L307.5 197.7L308.8 198.1L308 199L310.8 200.2L308.9 200.1L308.4 200.5L309 201.7L307.4 202.3L306.1 200.8L303.3 200.4L300.7 201L299.7 200.3L296.5 200.4L294.8 199.5L294.1 200.2L292.3 199.9L290.9 201.4L289 200L287.8 200L287.2 202.9L289.1 203.8L291 207.3L297.1 211.2L297.2 212.3L299.6 214.4L298.6 214.5L294.5 211.6L291.8 210.7L288.6 211L288.6 209.8L287 209.3L283.4 206.5L283.4 206L284.4 206.2L284.2 205.7L285.9 206L281.8 203.4L281.5 200.7L278.2 199.1L277 201.5L276.3 201.1L276.1 202.6L275.4 202.8L273.6 200.9L274.3 200.5L273.5 200.5L272.9 198.2L275.3 198.6L275.9 198.1L278.4 198.3L279.8 197.1L281.2 198.4L284.6 198.5L284.2 197.5L284.9 197.3L284.1 196.7L286.8 196L286.6 193.6L290.7 192.6L290.4 191.8L291.1 191.4L292 191.6Z"/>
    <path class="land" d="M304.5 217L304.9 218L301 215.6L295.5 214.2L296.9 214.1L300.1 215.2L299.6 214.8L300.5 214.8L304.4 217Z"/>
    <path class="land" d="M280.7 201.7L278.8 200.8L279.6 199.8L281.2 201.3L280.8 201.7Z"/>
    <path class="land" d="M273.8 198.4L273.3 197.9L275.4 197.3L273.4 196.2L273.5 195L272.6 194.9L273.7 193.8L272 193.1L274.1 191.6L279.5 192.5L282.9 190.8L289 190.6L288.7 189.7L289.5 189.4L291 189.6L292.2 191.7L291.1 191.4L290.4 191.8L290.7 192.6L286.6 193.6L286.8 196L284.1 196.7L284.9 197.3L284.2 197.5L284.6 198.5L281.2 198.4L279.8 197.1L278.4 198.3L273.9 198.4Z"/>
    <path class="land" d="M355.2 222.5L353.4 222.5L354.2 224.3L352.3 225.1L348.2 225.5L346 224.5L345.2 224.8L343.5 223.4L333.3 224.9L333.9 222.3L332.8 220.5L329.6 218.6L330.8 217.7L330.2 217L330.2 215.4L332.1 214.9L333.7 212.9L330.8 211.2L329.7 209L330.1 207.7L331.2 207.4L331.9 206.3L334 207.2L333.1 207.8L333.1 208.8L337 208.6L349.3 210L351.7 209.5L354.1 207.7L359.7 206.7L362 207.7L365.4 207.8L365.8 208.8L366 208.9L367.4 209.3L368.7 209.5L369.7 209.5L369.5 211.3L369 211.9L366.7 211.7L365.3 212.9L365.3 216.1L364.2 216L363.7 217L362.4 217.5L364.1 218L366.1 220.8L363 221.3L361.3 220L359.8 220.1L357 220.8L355.2 222.4Z"/>
    <path class="land" d="M140.5 241L139.5 241.6L138.9 243.4L140.5 245.2L141.5 245.1L141.1 246.2L139.5 246.5L137.8 249.1L138.6 251.7L135.9 252.7L131.1 251.9L128.4 252.6L130 248L129 246.6L129.7 244L128.7 243.2L130.9 243.6L129.8 242.7L129.7 243.2L126.9 243.6L126.7 242L128.7 241.3L128.3 240.5L129.9 239.3L128.8 239.6L127.6 241.7L125.3 241.8L125.2 241.1L126.1 238.6L125.7 237.5L127 237.3L127.8 236.2L129.2 232.7L129.7 232.7L129 232.2L130 229.4L131.1 228.6L130.5 228.7L130.6 228L130 229.3L130.6 226.1L129.5 222.7L130.3 222.4L129.1 222.3L129.2 221.5L130.8 220.3L133.4 219.6L134.2 220.4L133.3 221.4L134.2 221.9L135.4 221.2L138.4 221.9L140.2 220.7L143.7 220.9L144.2 222.8L146.3 223.4L141.6 226.9L142.4 228L142.5 231.2L140.9 232.3L142 233.4L141.1 235.4L137.6 235.5L139.2 237L139.6 238.6L141.3 239.5L140.6 241Z"/>
  </g>
  <circle class="halo" cx="253.6" cy="166.1" r="31"/>
  <circle class="halo-ring" cx="253.6" cy="166.1" r="49"/>
  <circle class="pin-outer" cx="253.6" cy="166.1" r="23"/>
  <circle class="pin" cx="253.6" cy="166.1" r="12"/>
  <style>
    .grid-line{fill:none;stroke:rgba(16,16,16,.08);stroke-width:1}
    .land{fill:url(#landWash);stroke:rgba(16,16,16,.36);stroke-width:0.95;stroke-linejoin:round;stroke-linecap:round;fill-rule:evenodd}
    .halo{fill:rgba(214,79,42,.12);stroke:rgba(214,79,42,.22);stroke-width:2}
    .halo-ring{fill:none;stroke:rgba(214,79,42,.16);stroke-width:2}
    .pin-outer{fill:#fffdf8;stroke:#fffdf8;stroke-width:8}
    .pin{fill:#d64f2a}
  </style>
</svg>
