<svg xmlns="http://www.w3.org/2000/svg" viewBox="0 0 520 300" role="img" aria-label="United States detailed outline">
  <defs>
    <linearGradient id="landWash" x1="0" y1="0" x2="1" y2="1">
      <stop offset="0" stop-color="#f0ede4"/>
      <stop offset="1" stop-color="#dbd7ca"/>
    </linearGradient>
    <filter id="softShadow" x="-10%" y="-10%" width="120%" height="120%">
      <feDropShadow dx="0" dy="8" stdDeviation="9" flood-color="#2c281f" flood-opacity="0.10"/>
    </filter>
  </defs>
  <rect width="520" height="300" rx="22" fill="rgba(255,253,248,0)"/>
  <g class="grid" opacity="0.45">
    <path class="grid-line" d="M74.4 250.5L74.4 49.5"/>
    <path class="grid-line" d="M190.4 250.5L190.4 49.5"/>
    <path class="grid-line" d="M306.4 250.5L306.4 49.5"/>
    <path class="grid-line" d="M422.4 250.5L422.4 49.5"/>
    <path class="grid-line" d="M28 242.8L492 242.8"/>
    <path class="grid-line" d="M28 204.1L492 204.1"/>
    <path class="grid-line" d="M28 165.5L492 165.5"/>
    <path class="grid-line" d="M28 126.8L492 126.8"/>
    <path class="grid-line" d="M28 88.1L492 88.1"/>
  </g>
  <g filter="url(#softShadow)">
    <path class="land" d="M53.1 57.3L266.4 57.3L266.5 54.3L269 54.8L270 58.7L270.9 59.3L276.4 60L277.3 60.9L283.4 60.2L285.9 60.8L285.4 61.4L287.1 61.6L288.1 63.2L288.8 62.4L290.4 62.3L294.2 64.6L296.5 64.4L299.6 63.1L300.6 64.3L305.5 64L307 65L311.3 65.1L319 62.6L346 73.5L346.8 75.5L348.4 76.8L351.9 76.3L352.1 78.7L353.1 79.9L355.8 79.5L357 80.3L355.6 82.1L356.8 82.2L364 85.5L367.1 99.1L364.2 106.5L359.9 109L359.3 111L360 112.5L363.1 113.9L364.8 113.9L365 113.8L373.9 109.7L381.8 108.5L391.3 105.1L392.2 104.1L391.2 103.5L391 101.5L390.8 101L390.1 100L393.4 98.8L408.2 98.8L412.1 94.5L415.7 92.7L420.3 89.2L423.1 88.1L449.4 88L449.9 86.4L450.7 85.9L452.1 86.2L453.4 85.4L454.2 86.3L454.8 84.9L456.1 85L455.4 84.3L455.4 84.2L455.8 83.7L457.8 82.6L459 81L458.9 78.8L460.5 77.2L461 75L467 69.1L467.1 69.1L468.3 69.3L468.4 70.6L468.5 70.7L469.5 71.2L474.2 69.8L478 72L478 82.6L480.9 83.5L480.6 86.1L481.8 86.9L482.9 86.8L484 88.3L482.7 88.9L483.1 89.6L483.6 89L483.9 89.4L483.9 89.3L483.8 88.9L484.4 89.6L482.7 90.9L481.7 90.4L481.1 91.3L480 90.9L479.6 91.8L478.6 92L478.5 91.3L478.2 91.8L477.9 91.3L477.3 92.8L476.7 92L476.1 93.3L475 91.8L474.8 92.3L474.2 91.8L474.4 92.4L473.4 92.7L472.8 92.1L472.9 92.9L472.1 92.7L472.3 94L470.2 93.4L471.1 92.7L470.2 92.8L470.8 91.7L470.3 91.5L470.3 92.2L468.9 92.6L469.3 93.3L467.3 96.2L465.9 96.1L466 95.4L464.6 97.1L464.7 95.7L464.2 97.4L463.6 96.8L463.9 95.7L462.9 96.7L462.9 97.7L462.8 95.4L462 96L462.8 97.7L462.4 98.2L462.1 96.9L460.9 97.9L461.1 96.9L458.8 98.6L459.5 99.3L458.4 99.4L458.6 100.1L456.7 101.3L456 102.9L455.4 102.7L454.4 104.9L455.2 106.3L456.2 106L456.4 106.4L454.3 107.2L454.2 108L453 108.8L455.3 109.5L456.5 111.2L456.1 110.8L455.5 111.3L458.5 113.5L461.1 112.8L461.2 111.9L460.5 112.2L460.3 111L459.2 110.9L460.4 110.9L461.6 112.6L461.5 113.9L457.8 114.1L456 115L456.2 113.4L455.6 113.3L454.5 114.5L454.1 114.1L453.7 114.9L452.9 114.7L451.9 115.4L451.7 114.1L452.5 112.9L451.3 114L450.3 112.7L449.5 116.2L443.4 116.9L442.6 116.2L442.9 116.8L441.7 117.1L438.7 117.2L438.6 116.7L437 117.9L433.2 118.9L431 120.6L431.1 117.9L430.4 116.7L430.8 119.6L427.9 123L430.3 123.3L429.4 128.5L429.7 126.4L429.2 126.8L428.8 129.1L427.6 130.1L427.8 130.6L427 130.2L426.5 131.4L426.9 131.8L425.2 132.2L425.9 132.3L422.8 135.1L423.1 133.1L421.3 133.1L418.3 130.8L418.1 129.8L419.3 128.3L421.3 127.8L422.2 126.7L417.8 129.5L417.9 131L419.3 132.6L419.4 134.1L420.9 136L421.7 136.1L421.9 137L421.9 137.4L421.3 136.9L421.6 137.3L420.8 137.9L421.9 137.5L422.1 139L421.8 139.7L421.9 138.7L421 139.1L421.6 139.8L416.1 146.5L415.1 149L414.5 148L415.2 145.5L416.3 143.7L417.3 143.5L416.7 142.9L417.5 142.6L415.6 142.6L416.7 141.4L415.1 141.2L416.1 140.5L415.4 140.2L415.9 139.1L415 140.3L414.7 139.5L414.4 140.5L412.2 138.6L413.3 137.9L412.5 137.9L412.5 137.4L414.9 137.6L412.4 136.3L412 137.1L412.3 135.9L413.3 136.4L413.8 136.1L413.2 135.7L413.8 135.5L412.8 134.9L411.8 135.8L412.2 134.3L413.1 134.7L414.2 133.4L412.8 134.3L412.6 133.2L413.3 132.1L415.9 131.7L414.4 131.5L415.9 131L415.5 130.6L416 130L414.7 131L415.2 129.9L414 130.2L414.1 131L413 131.7L412.9 130.9L412.5 132.1L412.4 131.8L412.3 131.4L412.2 131.4L411.6 131.5L412.1 131.8L411.3 132.1L411.6 132.6L410.9 132.1L411.6 132.7L411.2 133L409.8 132.5L411.6 134.3L410.2 134.2L411.2 135L410.3 134.9L410.9 135.3L410.4 136.4L410.7 138.2L411.7 139.3L411.2 139.8L409.7 138.6L409.4 137L409.5 138.5L411.8 140L412.2 141.9L411.1 140.7L410.7 141.2L408.4 140.3L407.9 139.2L408.2 140.3L407.5 140L406.7 138.5L405 139.2L405.2 138L406.8 136.9L406.5 135.3L406.6 136.7L405.2 137.2L404.3 139.6L406.6 139.2L407.3 140.6L409.9 141.1L410.6 142.1L412.7 143L412.7 143.6L412.2 143.4L412.3 145.1L411 144.5L410.8 144.9L407.4 141.5L405.9 141L407.5 141.8L410.4 145.2L412.5 145.6L411.6 145.9L412.6 146L412.8 146.9L412.5 147.5L411.5 146.6L411.8 147.8L410.8 148.1L408.5 145.9L410 147.7L412.4 148.9L412.5 149.8L411.5 150.2L409.8 148.3L408.9 148.5L408 147.5L407.5 148.1L406.9 147.5L404.8 147.6L409.5 148.6L409.6 149.7L410.8 150.4L410.6 151.1L412.4 151.2L412.3 150.3L414.6 150.5L418.3 159.3L416.8 157.7L415.1 152.2L414.9 153.5L415.4 153.9L414.3 153.2L414.4 153.9L415.1 154.8L415.3 154.4L416.3 157.1L415 155.4L415.4 156.5L413.1 155.2L414.2 156.5L412.4 156.1L413 157L411.1 156.1L412.3 157L410.2 157.6L409.4 157.3L409 155.2L409 158.2L414.3 157.9L414.2 159.3L413.7 159.3L414.4 160.1L413.6 160.1L414.4 160.4L414.7 158.6L415.7 158.7L415.8 157.9L416.8 159.1L416.3 161L415.5 160.5L413.5 162.8L411.9 162.3L411.8 162.8L411.4 161.9L410.8 162.4L410.2 161.6L411.1 161.3L409.7 161.4L410 162.4L406.5 161.3L407.1 162.1L411 163.4L409.4 164.1L410.3 164.5L408.8 165.6L406.3 164.3L407.4 165.6L410.5 166L410.3 165.5L410.9 165.7L411.2 164.9L411.1 165.9L412.2 165.7L411.9 165.3L412.6 165.7L412 166.4L410.7 167.5L409.9 166.9L409.9 167.5L409.8 167.7L409.4 167L408.7 167.4L409.2 167.6L406.2 168L405.9 167.3L404.3 168.9L403.6 167.4L404 169.1L401.3 170.8L399.6 173.7L399.5 171.7L399.1 174L396.3 173.6L393.3 174.9L390.4 177.7L390 179.2L389.4 178.5L390 177.6L389.3 178.2L390 179.5L388.8 179.7L389.2 180.1L388.5 180.8L386.9 180.8L386.9 181.6L385.1 182.8L384.2 182.1L384.6 183.3L382.4 184.3L381.7 183.9L382.2 184.3L381.2 184.9L378.6 184.6L380 185L379.2 185.1L380.2 185.4L379.5 186L380.4 185.5L379.5 186.5L378.8 186.6L378.7 185.1L378.6 186.3L377.9 185.9L377.1 184.5L377.6 186.2L378.5 187L377.4 187.8L377.6 186.8L376.8 188.2L377.3 188.6L376.3 189.6L375.1 189.4L374.9 189.8L375.7 190L375.2 190.7L373.9 190.5L374.5 190.9L373.4 192.1L373.5 193.7L372.2 193.6L373.9 194.4L373 195.3L372.5 194.8L372.2 195.5L372.9 195.7L372.7 196.2L372 195.7L372.5 196.2L372 196.6L372.5 196.7L371.9 197.5L372.7 198.9L372.6 200.1L372.3 199.4L372.1 199.9L372.8 200.6L373.7 205L376.6 211.3L379.6 215.9L379.2 218L380.2 220.6L378.9 218L379.1 215L377.8 214.9L377.9 213.9L377.2 213.5L377.3 214.5L382.2 225.8L381.3 225.5L382.6 226.3L383.4 228.8L382.7 236.8L382.6 235.8L381.4 238L380.6 241.4L379.4 240.9L378.2 241.7L375.3 241.9L374.6 241L374.9 240.2L376.1 241.2L376.6 240.8L374.9 239.8L373.1 236.3L370.3 235.7L370.9 235.2L369.8 234.3L369.4 231.6L368.2 231.4L370 229.5L368 231L367.5 228L368.4 227.4L367.1 227.9L366.1 227.2L367.1 228.9L365.8 228.5L363.8 224.3L362.6 223.4L363.7 223.4L365.3 221.1L364.9 220.1L364.2 221L364.1 220L362.9 219.3L363.3 219.8L362.7 220.2L363.9 220.5L363.4 221.8L362 220.9L362.6 222.2L361.8 220.9L363.4 214.2L363.4 212.7L362.1 210.5L360.2 210.5L357.4 207.8L357.4 206.7L352.6 203.3L350.8 203.4L349.8 203.9L350.1 204.4L349.3 204.1L350.1 204.5L349.9 205L348.9 204.7L346 206.2L346 205.6L342.4 206.6L341.9 205.3L342.6 206.5L342.3 205L339.8 203.1L342 203.7L339.5 202.6L340.6 201.6L338.5 202L339.3 203.1L333.4 201L336.4 201.2L335.7 200.2L334.2 200.6L333.6 200.1L332.7 200.9L328.1 201.3L330.4 200.7L329.4 199.4L328.9 200.7L328.2 199.6L328.4 200.5L327.2 201.6L325.5 202L326.9 200.8L326.3 200.4L325.9 201.4L324.9 201.3L325 202L321.6 202.4L323.7 202L322.6 200.9L322.5 199.6L321.6 198.4L320.8 201.7L319.3 201L318.2 201.6L317.3 201.1L316.1 201.4L315.3 200.9L314.7 200.7L315.1 201.1L312.3 201.7L311.6 201.2L310.7 202.7L309.5 202.9L304.7 201.1L303.1 202.7L303.5 203.5L305.3 203.9L308.9 202.8L308.6 203.9L307.6 204L309 205.1L310.4 203.5L311.3 203.8L310.6 204.3L311.3 204.5L310.8 204.7L311.6 205.1L311.5 205.7L310.4 205.4L309.5 206.2L310.4 207L308.7 206.4L309.3 207L308.3 207L310.1 208.2L310 208.8L312.6 209.1L314.1 210.5L313.4 210.6L314 210.7L313.1 211.9L312.2 211L310.9 212.4L312 210.6L311.2 211.2L310.6 209.9L307.8 209.4L308.4 209L307.8 208.2L305 207.4L304.8 207.9L306.2 208.6L306.3 209.6L304.6 211.2L304.4 209.8L303.8 209.5L303.4 210L303 209.1L301.7 209.5L301.4 210.8L299.6 210.8L296.1 209.6L296.9 208.9L297.8 209.8L296.6 208.2L296.9 207.2L296.4 208.1L294.3 207.7L293.7 206.1L292 206.3L292.1 205.4L289.4 206L290.2 206.4L290.1 207.1L290.7 207L288.5 207.7L281.7 205.9L276.8 206.5L276.3 205.8L277.3 204.4L276.6 204.2L275.9 205.6L276.4 206.6L274.7 206.7L269.6 209L271.7 207.5L269.4 207.8L270.1 206.5L269.8 205.8L268.4 206.8L267.3 206.1L267.8 206.6L267.5 207.7L269.1 209L266.4 210.3L266.5 211.5L258.3 215.8L260.1 214.6L258.2 215.1L258.9 214.8L258.3 214.7L258.5 214.3L257.3 214.7L256.6 213.7L257.1 214.8L256.2 215.1L256.5 214.7L255 214L256.2 215.7L255.8 216L256.9 216.2L254.9 217.1L253.9 215.9L253.9 217.7L253.2 218.4L252.7 218.6L253 217.6L252.5 218.6L252.2 218L250.9 218.4L250.6 219L251.1 219.6L252.1 218.8L250.8 220.9L248.2 220.6L250.3 222L249.1 224.7L248.1 225.1L248.5 224.2L247.4 225L246.3 223.7L247.1 224.9L246.4 225.2L249 225.3L248.5 227.2L247.9 227.4L248.5 228.3L247.9 228.6L249.9 234.1L250.6 234.4L250.3 235.1L251.1 234.5L251.2 235.3L249.7 235.6L249.4 236.3L247.2 234.8L242.8 234.5L238.3 232.2L236 231.8L234.9 228.7L233.2 226.9L232.8 222.8L230.4 221.3L228.6 218.5L226.9 217.5L226.6 215.7L224.2 212.4L223.9 211L219.5 207.1L218.9 207.2L218.2 205.8L212.8 205.7L211.1 205L210.5 205.9L208.3 206.2L206.8 209.2L207 210.1L204.9 211.9L202.9 211.6L194.1 206.8L192.9 204.6L192.9 202.6L190.9 199.4L181 192.7L179.6 190.6L165.5 190.4L165.5 193.9L144 193.9L114.4 184.8L115.2 183.2L96.6 184.6L95.9 183.3L96.7 184L96.6 183.3L95.6 183.3L95.1 180.1L94.8 179.7L93.7 178.3L89 175.2L86.7 175.2L85.9 173L83.6 173.2L81.1 172.4L77.8 170L70.9 169.8L69.5 168.8L69.4 164.4L67.6 163.7L67.5 162.1L64.4 160.3L62.7 157.7L59.7 155.4L59.1 153.2L60.8 152.1L60.4 151.3L59.7 150.2L57.9 150.3L56.3 149.1L54.9 145.9L54.9 144L55.8 143.7L56 145.3L58.7 146.4L57.3 144.1L56.4 143.9L56.5 143.1L55.6 142.5L56.1 142.2L61.3 142.2L62 141.5L61.9 142.1L63.2 142.2L62 141.4L60.6 142L61.4 141.1L59.7 141.9L58.5 141.2L57.9 141.9L55.9 141.1L55 141.4L55.5 143.2L54.8 143.7L51.8 141.8L51 142.3L51.6 141.2L51.2 140.4L52.5 141.5L50.2 138.8L45.6 135.2L44.6 128.1L40.7 124.8L40.5 122.9L41.6 120.9L41.7 121.5L42.8 120.3L41.7 120.9L42.6 118.9L42.2 118L42.9 114.9L42.2 113.4L41.4 113.1L41.9 111.6L40.7 110.5L40.1 108.8L40.4 106.6L39.1 104.9L40.4 101.2L41 101.3L41.7 100.3L42.4 100.7L41.9 100.1L40.9 100.8L41.8 98.5L42.9 98.1L41.9 98.3L42.6 93.5L43.3 92.7L42.8 92L43.4 91.1L42.9 90.6L43.5 85.5L44.1 84.9L43.9 83.8L44.3 84.5L43.8 83.7L44.5 82.7L43.9 83L43.6 82.3L44.1 80.3L43.3 78.6L45 79.6L44.5 79L47.1 78.6L48.2 79.3L49.8 79L48.9 79.2L45.8 78L42.8 78.3L43 75.3L43.8 77.5L44.7 77.2L44 76.7L43.8 75.6L45.3 75.2L42.7 74.7L42.5 73.5L43.3 74L43.1 73.5L44.9 73L42.6 72.3L42.6 73.2L42.1 73.2L41.9 71.2L40.2 66.9L38.3 65L37.8 63.6L38.4 62.5L37.8 61.9L43.7 63.7L49.3 64L50.4 63.5L50 63.8L51 64.6L51.8 64.2L52.2 65L52.1 64.1L53 63.8L54.1 65.9L52.7 67.4L52.3 66.3L52.4 66.9L50 69.9L52.4 69.3L50.3 69.5L54 66.2L54.5 66.3L54.2 65.4L54.7 65.5L54.8 65.7L55.3 66.8L53.8 67L54.4 68.2L53.5 67.8L53.7 68.6L54.7 68.2L55 68.6L54.5 70.6L53.6 70.3L54 69.5L53 71.3L52.7 69.6L50.6 71.7L51.7 71.3L51.1 72L51.7 71.7L52 72.3L52.6 71.4L53.3 72L54.8 70.2L55.6 70.6L56.4 69.9L55.8 66.5L57.5 64.7L56.3 64.2L56 63.3L55.3 63.6L56.2 64.5L55 63.8L54.8 63L55.8 63.1L55.9 62.6L53.6 61.6L54 60.9L55.2 61.4L54.5 60.4L55.5 60.4L55 59.1L53.8 59.3L52.6 57.6L53.2 57.4Z"/>
    <path class="land" d="M250.7 232.9L249.2 228.6L249.4 225.7L250.7 232.8Z"/>
    <path class="land" d="M256.7 216.6L256.8 217.1L253.6 219L253.8 218.1L256.7 216.6Z"/>
    <path class="land" d="M446.2 118.6L440 120.8L432.5 122L433.4 122.3L430.6 122.6L431.9 122L429.8 122L430.8 120.7L432 120.8L432.3 120.1L434.2 120L434.1 119.5L440.7 119.2L443.5 117.8L440.8 119.8L441.9 119.9L443.1 118.8L446.2 118.6Z"/>
    <path class="land" d="M56.2 65.1L55.9 65.7L54.8 65.1L54.2 63.7L53.1 63.2L54.3 61.8L54.9 62.7L53.3 63.1L54.4 63.5L54.8 64.9L55 64.2L56.1 64.9Z"/>
  </g>
  <circle class="halo" cx="240.7" cy="138.4" r="34"/>
  <circle class="halo-ring" cx="240.7" cy="138.4" r="52"/>
  <circle class="pin-outer" cx="240.7" cy="138.4" r="23"/>
  <circle class="pin" cx="240.7" cy="138.4" r="12"/>
  <style>
    .grid-line{fill:none;stroke:rgba(16,16,16,.08);stroke-width:1}
    .land{fill:url(#landWash);stroke:rgba(16,16,16,.36);stroke-width:1.45;stroke-linejoin:round;stroke-linecap:round;fill-rule:evenodd}
    .halo{fill:rgba(214,79,42,.12);stroke:rgba(214,79,42,.22);stroke-width:2}
    .halo-ring{fill:none;stroke:rgba(214,79,42,.16);stroke-width:2}
    .pin-outer{fill:#fffdf8;stroke:#fffdf8;stroke-width:8}
    .pin{fill:#d64f2a}
  </style>
</svg>
