<svg xmlns="http://www.w3.org/2000/svg" viewBox="0 0 760 390" role="img" aria-label="Natural Earth world land map">
  <defs>
    <linearGradient id="land-wash" x1="0" y1="0" x2="1" y2="1">
      <stop offset="0" stop-color="#ece9df"/>
      <stop offset="1" stop-color="#d9d5ca"/>
    </linearGradient>
  </defs>
  <path d="M284.7 324.7L287.3 325.5L288.5 328.3L273.4 330L268.4 329.9L265.7 329.3L277.3 324.7L284.7 324.7ZM235.5 312.1L234.8 314.3L232.3 314.5L229.9 314.9L221.6 313.4L227.8 312.6L228.5 309.6L229.7 308.7L231.7 308.4L235.5 312.1ZM237 281.7L239.7 282.8L242.7 283.2L233.8 284.7L222.4 279.9L229.9 282.1L233.6 279.4L237 281.7ZM686.9 258.5L693.1 258.7L692.3 262.8L688.3 263.4L685.5 259.2L685.6 258.4L686.9 258.5ZM745.3 258.7L747.9 259.5L744.6 263.1L745.4 264L743.8 264L742 264.7L737.5 268.9L731.9 268.2L731.5 267.5L732.7 266.2L745.3 258.7ZM748.6 250.3L753.2 253.3L756.9 253L756.4 254.6L755.7 255.6L754.1 255.6L750 260.1L749.6 259.6L748.7 259.4L749.9 257.9L749.2 256.9L747 256.2L748.8 252.5L744.5 247.4L748 248.7L748.6 250.3ZM485.7 210.1L486.4 213.9L484.9 213.9L479.4 230.3L477.7 230.8L475.9 231.5L474.6 231.1L473 230.4L471.3 225.2L473.7 221.7L472.8 217L473.5 216L473.8 214.8L480.7 211.9L483.9 207.4L485.7 210.1ZM683.1 210.5L686.9 212.6L689 219.7L694.2 222.3L696 225.7L698.2 225.8L703.3 232.3L704.2 236L703.2 241L696.7 252.5L688.9 255.4L686.2 253.4L685 253.7L683.2 255L676.9 253.6L674.7 250.2L673.6 249.5L671.6 249.3L672.3 248.4L671.8 247.1L670.7 248.4L668.9 248.7L670.9 244.5L667.1 248L663.5 244L657.2 242L646.3 243.3L641.1 246.2L633.1 246.4L629.2 248.3L622.8 246.8L624.2 242.2L619.3 232.4L621.2 232.8L619.4 229.3L621 224.7L621.1 226L626.4 222.8L635.1 221L639.7 215.2L640.6 216.7L641.5 216.3L640.7 215.5L645.3 211.3L648.2 210.6L653.6 212.6L655.7 208.3L659.9 207.5L659.8 206.6L658.3 206L659.4 205.8L665.6 207.8L668.2 207.1L669.1 208L666.1 212.7L676 217.5L678.2 215.1L680.9 205L683.1 210.5ZM609.3 198L613.4 198.2L613.8 197.5L624.3 200.9L621.9 201.6L602.4 198.2L603.9 196.5L609.3 198ZM663.2 188L663.8 190.9L666 192L672 189L685.2 192.9L691.7 196.8L690.7 199.1L698.1 204.8L692.3 204L685.6 199.6L681.1 202.6L673.7 200.4L673.2 200.9L670.5 201L671.4 199.5L672.7 199L672.2 197.1L671.2 195.6L662.2 192.3L661.6 193.2L660.7 193.3L658.6 191L662.2 189.9L659.2 189.9L655.5 187.7L658.4 187.2L659.5 186.7L662.9 187.4L663.2 188ZM644.4 183.5L642.7 185.2L641.1 185.6L633.7 185.6L633.4 186.9L635.3 188.5L636.4 187.7L640.4 187.1L636.5 189.4L640 195.5L638.9 196L638.1 195.4L639.1 193.9L637 194.6L636.5 194.1L635.4 190.7L634 191.2L634.2 193.3L634.2 195.8L632.9 196.1L632 195.6L632.6 193.9L632.3 192.2L631.4 192.2L630.7 191L633.4 185L635.2 183.7L644.4 183.5ZM603.4 196.4L596.6 193.5L581.2 176.3L582.5 176.3L585.8 176.7L599.2 185.8L598.4 187.3L604 191.4L603.5 193.7L603.4 196.4ZM628.8 182.8L631.2 184.4L628.7 184.6L625.2 193.1L612.7 191.2L610 185.3L610.3 183.6L611.5 182.4L613.1 183L614.7 182.7L615.1 181.2L616 180.9L618.5 180.5L626.4 173.7L631.6 176.4L627.7 180.2L629.2 181.9L628.8 182.8ZM646.8 171L647 172.2L647.1 173.2L646.4 174.8L645.6 173L644.7 173.9L645.3 175.2L644.7 176.1L642.2 175L641 172.1L637.4 173.2L640.7 170.5L644.9 170L644.8 168.6L646.8 171ZM636.1 153.1L637.4 153.6L638.1 153.1L638.6 155.6L638.1 157.1L636.8 157.7L636.5 159.1L637 160.5L641.7 161.5L641.9 163.7L640.3 162.8L639.5 161.9L634.7 161.4L634.8 160.6L635.4 160.2L633.5 159.4L633.2 158.6L633.1 156.9L633.9 157.5L634.2 154.7L634.8 153.1L636.1 153.1ZM226.8 150.7L232.3 151.1L235.8 152.9L230.8 153.2L230.1 153.5L229.3 154.7L222.8 153.4L227.3 152.8L225 151.1L225.5 150.6L226.8 150.7ZM211.8 145.5L223.4 149.9L215.8 150.7L217.3 149.7L207.3 145.8L200.6 147.1L206.3 144.8L211.8 145.5ZM677.6 120L676.1 123.5L673.4 124.4L669.7 124.5L666.7 126.5L665.3 125.8L665.2 124.5L656.5 125.8L658.7 127.1L657.3 130.1L655.9 130.8L653.2 126.8L660 123L664.2 122.5L666.4 122.8L668.6 119.7L670 120.5L673.1 118.8L674.3 118.1L675.7 115.9L675.3 113.9L676.2 112.8L678.4 112.4L679.6 114.9L679.5 116.3L677.6 118.1L677.6 120ZM683.8 107.5L685.3 107.8L686.8 107.1L687.3 109.1L684.1 109.6L682.3 111.3L679 110.1L677.8 112.1L675.5 112.1L675.2 110.3L676.2 109L678.5 108.9L679.1 106.4L679.7 105L682.2 106.9L683.8 107.5ZM261.5 95.9L260.1 97.4L267.1 98.4L266.5 99.7L267.9 99.4L268.2 100.4L268.9 101.5L268 103.1L267 103.1L265.6 102.8L266.1 101.3L265.5 101.1L263 102.6L261.2 101.3L259 101.4L254.9 101.4L258.9 95.8L263 94.3L262.6 94.8L261.5 95.9ZM683.3 95.8L685.4 98.9L682.3 98.3L681 100.9L683 102.7L683 104L681.4 102.9L680 104.3L680.2 95.4L678.9 93.7L679.1 91.2L681.1 90.4L680.2 89.6L683.3 95.8ZM365.7 93.1L361.9 94.1L358.9 93.9L360.6 92L359.5 90.2L362.4 88.8L364 88L365.8 87.9L368 89L365.7 93.1ZM373.7 81.8L371.4 83.7L373.6 83.4L375.9 83.4L375.3 84.9L373.4 86.5L375.6 86.6L381 91.9L383.6 92.2L383.3 93.4L382.2 93.9L383.1 94.8L367.8 96.8L370.9 95L372.8 94.6L369.5 94.3L368.9 93.6L371.1 93L369.9 92.1L370.3 90.9L373.5 91.1L373.8 90L372.3 88.9L369.8 88.6L369.3 86.8L368.2 87.7L368.1 86L367 85.1L367.8 83.2L369.4 81.8L371.1 81.9L373.7 81.8ZM200.2 69.3L210.9 72.7L195.9 73L197.7 72.2L198 70.8L198.7 69.1L200.2 69.3ZM349.4 67.9L348.9 69L351.3 70.2L340.6 73.1L337.8 72.9L331.9 72.3L334 71.5L329.4 70.6L333.2 70.3L333.1 69.8L328.6 69.4L330.1 68.2L333.3 67.9L336.6 69.1L349.4 67.9ZM483.7 112.6L486.4 114.4L484.6 114.6L483.1 117L483.2 117.9L483.9 119.2L493.6 120.3L493.7 116.8L491.2 114.8L491.7 113.3L493.7 113.8L495.6 113.2L494 112.1L493.4 111.1L491.7 111.6L491.5 112.9L490.8 109.9L486.2 106.7L492 105.5L492.4 103.8L492 102.7L483.7 103.5L478.6 106.7L483.7 112.6ZM188.8 62.4L188.8 64.3L191.7 62.9L195.6 66.5L197.8 65.3L199.3 63.7L199.5 61.8L202.5 61.9L205.6 62.2L208.4 63L208.5 63.9L207 64.9L208.5 65.8L208.2 66.7L204 67.9L201.1 68.2L198.9 67.7L195.6 70.8L183.3 75.7L181 77.7L180.2 79.1L180.1 81.2L183.2 81.5L184.2 83.2L185.2 84.5L206.3 88L206 89.5L206.6 91.3L208.2 93.3L211.3 95L212.9 94.4L214.1 92.6L213 89.7L211.5 88.8L218.4 85.5L214.2 81.5L216.7 79.6L215.8 78L215.1 75.2L224.1 75L233.1 77.4L233 78.9L233.7 81.2L235.7 81.5L237.2 82.5L243.7 78.7L250.4 84.7L249.5 85.8L259 88.9L262.3 91.3L262.4 93.3L253.3 96.7L239.8 96.7L229.9 102.8L242.7 98.5L244.5 99.3L242.5 100.5L243.2 102.5L243.9 103.8L246.6 104.7L250.1 104.4L252.2 102.4L252.4 103.7L253.8 104.4L242 108.6L240.4 108.5L240.3 106.9L244 105.5L240.6 105.5L238.3 105.8L230.8 109.5L232.3 112L224.4 113.2L227.5 112.9L228.1 113.2L223.9 113.6L221.9 116.8L220.6 115.8L221.5 117.7L220.9 118.4L219.7 119.8L218.8 116.4L218.4 117.2L218.9 118.3L217.5 118L218.9 118.6L220.1 122.8L208.3 130.1L211 138.2L210.3 141.2L207.5 140L204.9 134.3L203.3 132.8L202.5 132.5L191.7 132.1L191.7 133.9L189.7 134.2L181.9 133.2L176.1 135.7L174.9 136.5L174.4 137.3L173.4 146.1L176.7 151.7L180.7 153.7L185.7 152.7L187 152.4L188.4 151.7L189.4 148.7L196.2 147.7L192.3 157.8L200.6 157.6L203.9 158.9L203.1 166.3L208.1 170.4L212 168.9L217.8 170.6L221.9 166.3L228.5 163.9L229.3 164L229.8 164.5L228.1 165.7L228.6 169.9L229.6 169.8L230 168.5L229.4 167.8L229.3 166.5L232.3 164.4L236 167.2L243 168.1L249.4 166.9L247.6 167.5L259.4 175.4L266.1 175.8L271.7 178.5L274.5 182.9L273.6 186.1L277.4 186.4L277.4 188.2L279 187L281.7 187.7L285.2 188.8L286.2 189.8L285.9 190.8L295.6 191.1L304.8 195.2L306.7 199.1L305.8 202L298.4 209.2L297.1 217.8L293.6 225L291.9 225.8L291.4 226.8L279.4 230.2L277.6 232L276.8 237L266.4 247.2L261.3 248L256.7 246.3L260.1 251.6L258.1 253.9L255 254.8L250.7 255.2L248.4 255L248.8 258.3L247.5 258.9L242.5 259L242.8 260.8L246 261.7L244.1 262.2L242.4 263.3L242.1 265.1L241.6 266.1L239.6 266.1L237.9 267L237.3 268.3L239.4 269.6L241.4 270L240.7 271.6L234 276.2L234.7 278L236.1 279.1L230.4 280L230.1 281.7L221.8 278.9L220.4 272.5L221.3 270.8L223.5 269.4L220.3 268.9L222.3 267.4L223 264.4L225.4 265L226.5 261.3L225.1 260.9L224.4 263.1L223.1 262.8L225.4 255.8L224.8 254.1L224.7 252.1L229.2 243.6L231.9 221.1L231.4 218.6L229.3 217.6L229.1 216.9L219.5 212L211.6 198.8L210 197.6L208.5 196.9L209.2 196.1L208.1 194.4L211.6 190.7L209.1 190L209.5 189.5L209.1 187.9L217.2 179.2L214.9 171.2L212 170.1L210.1 171.6L211.1 172.6L209.2 173.2L199.2 168.3L199.1 166.3L195.3 162.4L187.4 161.2L180.1 157.2L176.2 158.2L161.5 153.5L157.3 150.5L157.8 147.9L156.2 145.5L143.1 134.5L141.1 130.6L137.7 129.5L137.9 132.4L149 144.8L148.1 145.4L147.7 145.4L143.2 142L143.2 140.7L142.9 139.8L137.1 136.7L139 135.2L137.4 133.9L136.1 133.5L132.4 127.3L125.4 124.5L117.4 114.3L118.4 105.1L116.8 100.3L117 100L120.1 100.6L121.2 102.3L120.7 98.9L111 95.6L109.8 94.1L110.1 93L107.4 92.2L96.9 82.7L69.4 77.8L67.1 78.1L67.5 79.4L59.7 80.8L62 77L54.8 80.5L56.4 81.4L54.4 82.6L45.5 86.5L32.1 89.3L47 83.7L47.4 82.3L48.5 81.3L38.1 81.7L37.9 80.6L38.3 80L36.9 79.4L34.2 79.7L29.3 76.7L32.6 73.7L40.6 72.6L40.2 71.8L39 71.5L40.6 70.8L31.8 71.4L25.1 69.3L28.1 68.5L32.8 67.6L38.7 68.5L27.9 64.5L49.4 59.1L91.8 63.5L109.5 60.7L110.9 60.9L114.5 62.5L117.3 61.3L117.6 62.6L123.6 61.9L139.6 64.4L136.6 65.3L150.1 66.2L152.4 65.3L150.3 64.6L151.6 63.9L154.2 63.9L155.9 63.7L165.8 65.7L169.1 65.5L172.2 65.5L171.9 64.4L173.8 64.1L177.1 64.7L177.1 66.4L181.1 63.2L178.8 62.1L176.3 61.4L176.5 59.4L179 58.1L186.8 61.2L184.9 62.1L188.8 62.4ZM139 56L137.9 56.8L147.9 56.3L149.9 56.9L151.6 58.6L152.7 57.9L151.2 56.1L153 55.8L155.1 56.1L157.5 56.8L158.8 58.5L159.5 59.8L163 60.7L166.8 61.5L166.6 62.3L163.1 62.4L164.5 63.1L163.8 63.8L140.8 64.2L132.3 61.6L142.7 60.9L131.1 60.6L130 59.9L134.9 59.2L131.6 59.3L127.9 58.8L129.7 57.5L131.2 56.7L136.8 55.7L139 56ZM197.3 55.9L198.9 57.1L200.9 55.6L206.2 54.9L209.8 56.7L209.5 57.9L213.7 57.4L215.7 56.7L223.6 59.2L227.5 58.8L238.6 63L234.7 63.8L249.4 67.1L248.8 68.4L245.1 70.4L236.4 68.2L236.1 69.2L243.5 73.3L242.7 74.6L240.1 74.1L234.8 72.7L240.3 75.9L234.6 75.2L230.1 74.2L222 71L222.1 71.5L215.9 71.8L214.2 71.2L215.6 69.9L219.5 69.9L223.9 69.6L223.2 69L223.9 68.1L226.6 66.4L213.3 61.3L192.8 60.8L191 60.2L193.2 59.4L190.2 59.4L189.6 57.6L191.2 56L193.4 55.3L198.8 54.8L197.3 55.9ZM168.1 54.7L170.7 55.1L174.4 54.9L175 55.4L173 56.2L176.2 57L175.8 58.6L172.4 59.3L170.3 59.1L168.9 58.5L163.6 57.1L163.7 56.5L168 56.7L165.6 55.6L168.1 54.7ZM183.3 56.6L181 58L178.6 57.9L177.3 56.3L177.3 55.4L178.4 54.7L180.5 54.2L184.9 54.3L188.9 54.7L185.8 56.3L183.3 56.6ZM125.7 59.1L120.1 60L119 59.2L114.2 58.2L118.3 55L116.3 53.9L136.1 55.4L133.5 55.8L128.3 57.1L125.7 58.3L125.7 59.1ZM686.3 51.7L684.6 53L676.9 52.9L673.4 53.4L669.2 52.2L670.3 51L673.1 50.6L678.7 50.7L686.3 51.7ZM151.6 50.5L156.8 51.8L143.1 53.7L139.9 53.7L139.6 53.2L144 52.4L134.5 52.6L131.5 52.3L134.4 50.5L136.4 50L149.7 51.8L146.7 50.1L151.6 50.5ZM501.5 60.3L500.2 60.4L493.3 60.2L488.6 58L498 53.3L497.4 52.5L519.8 49.4L523.9 49.2L525.4 49.9L503.5 53.9L500.3 55.6L497 57.3L497.4 58.8L501.5 60.3ZM180.1 48.9L191.7 51.6L208.7 51.4L211 52.1L211.5 52.8L190.5 53.5L175 49.6L175.8 48.8L180.1 48.9ZM418.5 44.3L425.5 45.6L420.2 46.3L416.1 49.5L413.6 49.5L402.1 44.4L418.5 44.3ZM433.7 43.1L437.9 43.7L434.7 44.6L428.6 44.8L416.7 43.2L433.7 43.1ZM591 45.8L586.4 46L580.5 45.5L572.5 43.2L578 42L582.5 41.6L586.6 42.4L591.5 44.2L591 45.8ZM196.3 44.4L198.8 45L188.3 47L175.8 43.5L184.9 41.5L196.3 44.4ZM235.4 38.3L249.4 39.1L237.2 41.1L241.8 41.1L229.7 44.1L217.6 45L220.5 45.2L219.1 45.5L220.8 46.4L211.6 48.7L215.6 49.5L209.9 50.6L191.1 50L190.8 49.2L194.7 48.8L193.7 47.5L195 47.4L200.6 48.2L197.7 47L194.3 46.7L200.4 44.9L197.4 44.2L196.5 43.3L207.2 43L202.5 42.7L195.1 42.9L186.7 40.4L212.6 38.2L235.4 38.3ZM322.8 37.5L336 38.9L312.7 39.9L333.4 40.7L331.1 41.7L336.5 41.1L346.7 40.4L353 40.7L354.2 41.5L337.7 43.5L342.6 43.5L340.1 44.8L338.4 46L338.5 48L341 49.1L337.7 49.2L334.2 49.8L338.1 50.7L338.6 52.2L336.4 52.4L339.1 53.9L330.2 55.7L332.9 56.9L332.9 57.7L328.7 56.9L327.7 57.4L330.5 57.9L333.3 58.9L334.1 60.4L330.3 60.7L328.7 60L326.1 59L326.8 60.2L324.3 61.2L329.9 61.2L332.8 61.3L296 69.6L293 73.1L289.6 74.6L290.5 76L289.5 77.4L288.4 79.2L278.1 77.8L271 72.9L266.1 66.6L272.6 61.7L264.6 62.2L264.4 61L265.2 60.1L267.2 60.1L271.5 60.5L262.1 58.6L264.5 57L256.3 51.7L235.4 50.8L232.9 50.2L229.3 49.1L234.8 48.5L239.1 48.4L230 48L225.3 47.3L241.3 44.9L242.1 44.2L236.4 43.6L248.6 41.4L247.7 40.6L273.6 39.4L286 40.8L281 39.9L298.5 37.5L305.9 37.3L322.8 37.5Z" fill="url(#land-wash)" stroke="rgba(16,16,16,.32)" stroke-width="1.15" stroke-linejoin="round"/>
</svg>
