<svg xmlns="http://www.w3.org/2000/svg" viewBox="0 0 520 300" role="img" aria-label="Japan detailed outline">
  <defs>
    <linearGradient id="landWash" x1="0" y1="0" x2="1" y2="1">
      <stop offset="0" stop-color="#f0ede4"/>
      <stop offset="1" stop-color="#dbd7ca"/>
    </linearGradient>
    <filter id="softShadow" x="-10%" y="-10%" width="120%" height="120%">
      <feDropShadow dx="0" dy="8" stdDeviation="9" flood-color="#2c281f" flood-opacity="0.10"/>
    </filter>
  </defs>
  <rect width="520" height="300" rx="22" fill="rgba(255,253,248,0)"/>
  <g class="grid" opacity="0.45">
    <path class="grid-line" d="M157 272L157 28"/>
    <path class="grid-line" d="M211.2 272L211.2 28"/>
    <path class="grid-line" d="M265.4 272L265.4 28"/>
    <path class="grid-line" d="M319.6 272L319.6 28"/>
    <path class="grid-line" d="M373.9 272L373.9 28"/>
    <path class="grid-line" d="M124.4 261.2L395.6 261.2"/>
    <path class="grid-line" d="M124.4 206.9L395.6 206.9"/>
    <path class="grid-line" d="M124.4 152.7L395.6 152.7"/>
    <path class="grid-line" d="M124.4 98.5L395.6 98.5"/>
    <path class="grid-line" d="M124.4 44.3L395.6 44.3"/>
  </g>
  <g filter="url(#softShadow)">
    <path class="land" d="M229.2 180.1L229.5 180.7L228.9 181L226.9 186.6L227.4 187.5L225.7 192L224.4 191.2L222.8 191.2L222.2 192.2L223.5 193.1L221.4 194.8L218.3 196.1L219.8 192.4L218.7 190.2L217.6 189.7L218.7 189.4L219.4 190L220 189L219.9 188.6L219.6 188.4L218.2 188.3L216.9 190.5L217.3 192.5L218.4 193.1L217.6 194.4L216.1 193.4L213.6 193.4L212.5 191.7L213.7 192L214.8 190L214.7 189.1L213.1 187.5L213.7 187.2L213.2 184.2L214.7 184L216.8 181.6L217.7 179.8L217.3 179.3L218.4 178.2L216.1 178.5L218 177.6L217.8 176.7L216 175.2L215.8 173.5L213.8 172.4L212.6 173.1L213.6 174.7L212.3 175.7L214.9 176L215.1 177.8L213 178.8L212.6 177.8L213.5 177.1L212.2 176.6L210.8 177L208.4 179.1L209.7 177.4L207.3 175.2L207.7 173.4L208.6 173.9L208.4 174.5L209.3 174.6L209 175.8L211.2 176.1L211 175.9L210.5 175.2L210.6 174.2L208.5 173.7L208.1 172.6L207.6 173.3L207.4 172.3L206.3 172L206.6 170.4L207.7 170.1L209.6 171.4L209.8 170.1L208.9 169.5L209.8 169.6L209.6 168.4L211.4 169.6L213 168.6L212.2 168.2L213.5 167.2L214.3 168.2L215.4 167.8L215.5 167.1L214.3 167L216 166.6L216.5 165.1L219.4 164.2L221.1 164.7L222.1 163.9L221.6 165.5L223.2 167.6L226 168.2L227.7 167.1L229.3 167.2L230 169.1L228.5 170.6L227.5 170.5L227.4 170.7L227.6 171.4L231.8 171.5L230.8 173L232.8 173.4L231.8 174.6L233.8 175L229.7 178.9L230 179.9L229.4 180.1Z"/>
    <path class="land" d="M262.1 165.4L258 168.2L256.5 171.8L253.8 169L251.8 168.6L246.9 170.4L246.2 172.7L243.8 174.5L243.8 175.8L243.2 176L243.8 177.5L242.8 176.8L239.7 177.1L240.6 175.4L239 175.1L238.4 175.6L238 174L237 174.2L238.1 173.7L237.8 173.2L238.2 173L237.2 172.2L238.2 172.6L238.8 171.9L238.1 171.4L238.6 171L237 170.9L237.5 169.6L236.2 169.4L233 170.6L240.2 166.6L240.6 164.6L242.9 162.8L242.6 162.2L243.1 162L245.1 164.3L247.2 163.7L249.3 163.9L250.7 162.7L250.7 161.6L249.8 160.7L251.3 161L253.9 159.5L255.5 159.8L256.1 159.3L256.4 160L256.9 159.7L259.3 161.3L261.6 161L261 163.2L262.1 164.1L261.6 165.1L262.1 165.3Z"/>
    <path class="land" d="M248.3 158.7L246.8 160.1L247.1 159.6L246.4 158.9L245.7 160.5L244.6 160.7L244.5 160.5L244.5 160.1L245.6 159.7L244.7 159.3L244.4 160L242 160.2L240 161.4L238.9 161.5L238.5 159.7L236.6 159.8L236.3 160L235.3 161L235.2 163.7L234.4 164.2L234.6 165.3L233.3 166L234 164.9L231.3 163.6L230.5 163.9L231 163.3L230.1 162.9L228.5 163.2L228.3 163.7L227.3 163.2L226.8 163.8L226.3 163.1L224.8 164.4L222.4 163L221.1 164.5L220.5 162.3L221.2 161.6L220.7 160.5L221 159.7L222.4 159.4L221.5 159L223.9 159.6L223.9 158.9L225.1 159.1L224.3 159.6L226.5 159L228.5 156.4L231.4 155.8L237.3 150.8L239.8 149.5L239.8 147.9L243.4 147.1L244.7 146.2L247.1 146.5L246.6 147.3L248.1 147.8L250 146.9L257.2 146.8L260.4 145.4L264.6 145.8L267.9 144.3L268.7 145.4L267.5 146.8L268.1 146.3L268 146.8L269.1 147.2L268.9 147.9L269.8 147.5L269.1 146.9L270.4 146.2L271.2 147.4L272.5 146.8L272.2 147.4L273.3 147.4L273.5 146.9L272.9 146.8L273.1 146.6L273.4 146.5L274.5 146.9L274.2 145.7L276.1 145.9L275.8 144.8L276.1 144.7L276.5 144.4L277 145.5L277.3 144.3L275.9 141.9L277.6 139.1L280.4 137.6L283.7 133.9L284.5 132.4L284.6 132.2L284.1 129.6L283.5 129.4L284.4 127.1L290.8 125.4L290.9 126.2L289.8 126.5L289.9 127.6L288.3 127.9L287.3 129L286.6 128.5L285.6 130.2L286.9 130.5L287.6 130L287.2 132.8L288.8 133.6L290.7 133.6L292 131.7L300.6 129L303.9 126.9L307.3 122L313.2 118.7L313.9 115.7L315.3 113.1L317.2 111.3L320.2 103.9L319.9 100.4L318.8 99.6L317 100L316.4 98.9L316.4 98.6L316.4 98.4L318.2 98.7L319.8 95.9L319.9 94.9L319.9 94.6L318.1 91.9L320.1 90.2L322.6 89.7L323.1 87.3L323.7 87.8L324.1 87.4L322.3 86.3L323.1 86L323.4 84.8L324.7 85.7L326.5 85.5L327.3 89.2L328.9 88.9L329.3 87.5L331.9 89L333.5 86L332.7 84.8L331.1 85.7L327.9 86.1L329.5 81.8L333.5 83.8L335.5 83L334.7 87.3L335.2 91.2L339.5 95.8L339.3 96.5L340 97L339.6 97.7L340.8 98.5L341.4 101L340.9 102.7L341.7 102.4L342.1 103.4L340.8 104.3L342 104.3L340.3 105.7L341.2 105.8L340.2 106.3L340.8 106.6L340 107.1L340.4 107.5L339.6 107.7L340.4 108.3L339.4 108.3L339.8 108.5L339.9 108.7L339.7 109.1L338.4 108.9L338.4 109.9L337.4 109.5L337.8 110.9L336.9 110.6L336.1 111.8L336.6 112.5L335.5 113L336.3 113.3L335.6 114L336.4 114.6L335.6 115.5L336.4 116L335.9 116.1L336.2 117.3L335.1 116.1L333.8 115.8L332.3 116.7L331.4 116.3L330.1 118.3L329.6 120.6L330.7 123.1L330.6 129.6L330.1 131.4L328.4 132.3L327.7 133.5L325.8 138.8L326.7 141.7L329.2 144.9L326.8 145.2L326.1 145.6L324.9 146.6L324.2 147.4L323.8 148.6L323.7 150.8L321.1 151.4L318.8 153.7L317 153.2L318.2 152.7L317.7 151L318.2 150L317.3 149.3L320.8 146.6L319.5 145.5L317.4 146.2L317.1 145.6L317.3 147.1L315.8 147.8L316.3 148L315.7 148.4L315.8 149.5L316.9 150L316 150.6L316.2 151.2L315.5 151.3L314.7 149.4L310.8 149.9L310.5 151.2L309.6 151.9L310.3 154.1L308.8 155.6L308.7 156.5L307 157.1L306.1 156.1L306.2 152.9L307.8 152.4L306.7 151.4L304 151.7L303.5 152.9L301.9 153.6L300.3 155.8L300.5 157.1L297.6 156.3L293 156.2L287.3 157.3L287.9 156.3L288.3 156.8L290.8 155.7L290.1 154.8L287.3 155.1L286.7 154.5L286.9 153.5L286.2 155.1L286.8 156L285.5 155.5L285.2 153.2L285.9 151.7L285.5 152.3L285.3 151.9L285.4 152.4L283.4 152.9L281.9 156.2L282.2 157L286.2 158.8L286 160.7L284.9 160.8L285.4 160.2L283.9 160.4L283.9 159.9L279.9 161.6L279.6 162.6L278.6 162.7L279.2 163.9L277.4 164.7L275.8 168L273.7 169.7L273.7 169.2L270.2 168.4L269 167.1L269.7 166.7L266.1 164.9L266.2 163.8L267.2 163.3L266.4 162.8L266.8 162.1L267.5 161.9L266.1 160.7L269.5 158.3L269.9 156.1L265.9 156.8L262.7 155.2L259.9 155L258.4 155.9L256.8 155.7L257.6 156L256.2 157.1L253.9 157.2L255.1 157.2L253.9 158.7L252.3 158.8L251.6 157.8L248.8 159L249.3 158.5L249.4 158.3L248.2 158.7Z"/>
    <path class="land" d="M382.2 61.8L382.7 62L380.7 62.6L379.6 64.1L375.4 64.6L375.7 65.1L373.9 65.5L374 66.1L372.8 66.2L371.7 65.4L371.1 66.8L366.5 65.9L361.8 67.6L358.4 70.3L357 71.9L356 73.3L355.8 75.6L354.8 77.6L351.7 75.7L346.3 73.9L339.4 70.3L335.1 70.7L330.2 73.6L327.6 70.7L324.6 70.7L323.2 72.1L322.8 74L325.6 75.7L327.4 75.4L332.7 79L330.6 79.9L327.3 79.6L327.5 78.8L326.8 78.7L326.2 79.7L324.6 80.3L324.3 81.9L321.9 83.3L320.6 83.1L319.4 81.3L321 78.8L321.2 77L317.3 74.1L317.9 70L320.2 69.3L321.6 68L322.7 68.6L325.3 66L323.3 63.7L323.2 63.2L323.5 62.4L324.9 61.9L328.3 63.8L330.6 63.5L330.7 64.1L332.3 64.4L335.1 62.5L334.1 58.2L337.4 55.8L337.6 52.1L339.1 48.6L338.7 45.5L336.7 42L337.7 39.4L338 39.9L339.4 39.7L340.7 38.6L352 48.8L356.6 51.7L358.2 52.4L360.6 53.1L359.6 53.1L360.1 53.9L364.3 53.7L364.7 53.8L364.9 54L364.2 54.8L364.5 54.9L364.7 54.9L365.7 53.8L367.1 55.6L371.1 56L377.6 51.4L377.9 52.4L374.6 57.6L378.1 62.6L376.7 62.4L379.5 63.5L379.3 63L380.2 62.3L382.2 61.7Z"/>
    <path class="land" d="M144.1 267.8L145.4 268L144.8 269.2L142.5 268.8L143.9 267.6Z"/>
    <path class="land" d="M149.7 265.7L148.8 268.1L147.7 268.3L147 267.3L148.4 267.2L149.6 265.6Z"/>
    <path class="land" d="M193.2 241.7L191 244.3L187.9 245.5L188.6 247L187.6 246.9L187.1 247.8L187 248L187.6 248.3L187.5 248.5L187.3 248.8L185.7 249.4L185.6 248L186.7 246.8L186.5 245.6L189.1 244.2L188.2 242.8L190.1 243.3L192.3 240.7L193.1 241.5Z"/>
    <path class="land" d="M200.2 230.7L200.7 231.1L200.1 231.9L199.2 231.6L199.2 229.8L199.8 229.6L200 229.8L200.1 230.4Z"/>
    <path class="land" d="M208 223.6L205.2 225.5L205.4 226.3L204.2 226.9L204.4 227.3L203.3 226.1L201.9 225.9L203.3 225.9L203.2 225.1L207.9 223.3Z"/>
    <path class="land" d="M218.5 202.9L217.5 204.4L215.9 204.3L215.3 202.7L216.6 201.9L218.1 202.6Z"/>
    <path class="land" d="M222.6 197.8L222.9 199.4L221.6 202.9L220.6 203.2L220.4 201.9L222.5 197.9Z"/>
    <path class="land" d="M212.9 179.3L213.4 181.6L211.2 183.2L211.1 183.1L211.3 182.5L210.8 182.5L211.9 181.9L211 181.6L211.2 179.5L212.7 179.3Z"/>
    <path class="land" d="M199 177.9L198 178.2L197.9 179L196 178.6L196.7 176.8L197.1 177.2L198.3 176.6L198.8 177.8Z"/>
    <path class="land" d="M201.4 174.5L202.3 174.6L201.1 176.4L200.1 175L201.3 174.1L201.5 172.6L201.4 174.2Z"/>
    <path class="land" d="M203.7 160.5L203.4 162.2L202.2 162.4L202.6 160L203.6 160.4Z"/>
    <path class="land" d="M265.5 157L264.3 159.5L265 160.6L263.3 161.4L262.7 161.5L262.5 161.5L261.7 160.4L265.2 157Z"/>
    <path class="land" d="M205.3 156.8L204.3 159.2L204.8 159.7L204.1 160.3L203.7 159.4L202.8 159.7L203.7 158.6L203.5 157.4L204.9 156L205.6 156.2L205.4 156.8Z"/>
    <path class="land" d="M247.7 138.9L247.3 140.2L245.8 139.6L246 138.6L246.9 138.2L247.7 138.8Z"/>
    <path class="land" d="M302.9 119.4L304.2 119.4L303.4 121.2L300.6 122.4L300.3 122L301.7 120.5L301.4 120.2L300.6 120.4L300.6 119.4L303.5 116.7L302.9 119.6Z"/>
  </g>
  <circle class="halo" cx="298" cy="131" r="34"/>
  <circle class="halo-ring" cx="298" cy="131" r="52"/>
  <circle class="pin-outer" cx="298" cy="131" r="23"/>
  <circle class="pin" cx="298" cy="131" r="12"/>
  <style>
    .grid-line{fill:none;stroke:rgba(16,16,16,.08);stroke-width:1}
    .land{fill:url(#landWash);stroke:rgba(16,16,16,.36);stroke-width:1.25;stroke-linejoin:round;stroke-linecap:round;fill-rule:evenodd}
    .halo{fill:rgba(214,79,42,.12);stroke:rgba(214,79,42,.22);stroke-width:2}
    .halo-ring{fill:none;stroke:rgba(214,79,42,.16);stroke-width:2}
    .pin-outer{fill:#fffdf8;stroke:#fffdf8;stroke-width:8}
    .pin{fill:#d64f2a}
  </style>
</svg>
